{
  "accessors": [
    {
      "bufferView": 2,
      "componentType": 5126,
      "count": 9518,
      "max": [
        97.0340805053711,
        14.706815719604492,
        180.21478271484375
      ],
      "min": [
        -97.03425598144531,
        -24.47001075744629,
        -1.7869499921798706
      ],
      "type": "VEC3"
    },
    {
      "bufferView": 2,
      "byteOffset": 114216,
      "componentType": 5126,
      "count": 9518,
      "max": [
        0.9999944567680359,
        0.999846339225769,
        0.99992436170578
      ],
      "min": [
        -0.9999813437461853,
        -0.9999687671661377,
        -0.9997479915618896
      ],
      "type": "VEC3"
    },
    {
      "bufferView": 3,
      "componentType": 5126,
      "count": 9518,
      "max": [
        1.0,
        0.9998047947883606,
        0.9999072551727295,
        1.0
      ],
      "min": [
        -1.0,
        -0.9999863505363464,
        -0.9995606541633606,
        -1.0
      ],
      "type": "VEC4"
    },
    {
      "bufferView": 1,
      "componentType": 5126,
      "count": 9518,
      "max": [
        0.49941399693489075,
        0.9995740056037903
      ],
      "min": [
        0.0012469999492168427,
        0.7507389783859253
      ],
      "type": "VEC2"
    },
    {
      "bufferView": 0,
      "componentType": 5125,
      "count": 47388,
      "type": "SCALAR"
    },
    {
      "bufferView": 2,
      "byteOffset": 228432,
      "componentType": 5126,
      "count": 1564,
      "max": [
        73.74052429199219,
        18.962190628051758,
        160.65359497070313
      ],
      "min": [
        -73.75048828125,
        -18.766551971435547,
        90.61077880859375
      ],
      "type": "VEC3"
    },
    {
      "bufferView": 2,
      "byteOffset": 247200,
      "componentType": 5126,
      "count": 1564,
      "max": [
        0.9975610971450806,
        0.9977471232414246,
        0.9994202256202698
      ],
      "min": [
        -0.9975303411483765,
        -0.9999314546585083,
        -0.999945342540741
      ],
      "type": "VEC3"
    },
    {
      "bufferView": 3,
      "byteOffset": 152288,
      "componentType": 5126,
      "count": 1564,
      "max": [
        1.0,
        0.9996222853660583,
        0.9988133311271667,
        1.0
      ],
      "min": [
        -0.9999996423721313,
        -0.9986487627029419,
        -0.999602198600769,
        -1.0
      ],
      "type": "VEC4"
    },
    {
      "bufferView": 1,
      "byteOffset": 76144,
      "componentType": 5126,
      "count": 1564,
      "max": [
        0.49938100576400757,
        0.8735929727554321
      ],
      "min": [
        0.37650901079177856,
        0.751006007194519
      ],
      "type": "VEC2"
    },
    {
      "bufferView": 0,
      "byteOffset": 189552,
      "componentType": 5125,
      "count": 6468,
      "type": "SCALAR"
    }
  ],
  "asset": {
    "extras": {
      "author": "BernalesAriesJosue (https://sketchfab.com/BernalesAriesJosue)",
      "license": "CC-BY-4.0 (http://creativecommons.org/licenses/by/4.0/)",
      "source": "https://sketchfab.com/3d-models/soldado-personaje-f7112de9a6e24aac99f21e1b9698006d",
      "title": "SOLDADO-Personaje"
    },
    "generator": "Sketchfab-12.64.0",
    "version": "2.0"
  },
  "bufferViews": [
    {
      "buffer": 0,
      "byteLength": 215424,
      "name": "floatBufferViews",
      "target": 34963
    },
    {
      "buffer": 0,
      "byteLength": 88656,
      "byteOffset": 215424,
      "byteStride": 8,
      "name": "floatBufferViews",
      "target": 34962
    },
    {
      "buffer": 0,
      "byteLength": 265968,
      "byteOffset": 304080,
      "byteStride": 12,
      "name": "floatBufferViews",
      "target": 34962
    },
    {
      "buffer": 0,
      "byteLength": 177312,
      "byteOffset": 570048,
      "byteStride": 16,
      "name": "floatBufferViews",
      "target": 34962
    }
  ],
  "buffers": [
    {
      "byteLength": 747360,
      "uri": "scene.bin"
    }
  ],
  "extensionsRequired": [
    "KHR_materials_pbrSpecularGlossiness"
  ],
  "extensionsUsed": [
    "KHR_materials_pbrSpecularGlossiness"
  ],
  "images": [
    {
      "uri": "textures/PackedMaterial0_diffuse.png"
    },
    {
      "uri": "textures/PackedMaterial0_specularGlossiness.png"
    },
    {
      "uri": "textures/PackedMaterial0_normal.png"
    }
  ],
  "materials": [
    {
      "doubleSided": true,
      "extensions": {
        "KHR_materials_pbrSpecularGlossiness": {
          "diffuseFactor": [
            1.0,
            1.0,
            1.0,
            1.0
          ],
          "diffuseTexture": {
            "index": 0
          },
          "glossinessFactor": 0.0,
          "specularFactor": [
            0.05,
            0.05,
            0.05
          ],
          "specularGlossinessTexture": {
            "index": 1
          }
        }
      },
      "name": "PackedMaterial0",
      "normalTexture": {
        "index": 2
      }
    }
  ],
  "meshes": [
    {
      "name": "Object_0",
      "primitives": [
        {
          "attributes": {
            "NORMAL": 1,
            "POSITION": 0,
            "TANGENT": 2,
            "TEXCOORD_0": 3
          },
          "indices": 4,
          "material": 0,
          "mode": 4
        }
      ]
    },
    {
      "name": "Object_1",
      "primitives": [
        {
          "attributes": {
            "NORMAL": 6,
            "POSITION": 5,
            "TANGENT": 7,
            "TEXCOORD_0": 8
          },
          "indices": 9,
          "material": 0,
          "mode": 4
        }
      ]
    }
  ],
  "nodes": [
    {
      "children": [
        1
      ],
      "matrix": [
        1.0,
        0.0,
        0.0,
        0.0,
        0.0,
        2.220446049250313e-16,
        -1.0,
        0.0,
        0.0,
        1.0,
        2.220446049250313e-16,
        0.0,
        0.0,
        0.0,
        0.0,
        1.0
      ],
      "name": "Sketchfab_model"
    },
    {
      "children": [
        2,
        3
      ],
      "name": "SOLDADO OBJ TEXTURAS.obj.cleaner.materialmerger.gles"
    },
    {
      "mesh": 0,
      "name": "Object_2"
    },
    {
      "mesh": 1,
      "name": "Object_3"
    }
  ],
  "samplers": [
    {
      "magFilter": 9729,
      "minFilter": 9987,
      "wrapS": 10497,
      "wrapT": 10497
    }
  ],
  "scene": 0,
  "scenes": [
    {
      "name": "Sketchfab_Scene",
      "nodes": [
        0
      ]
    }
  ],
  "textures": [
    {
      "sampler": 0,
      "source": 0
    },
    {
      "sampler": 0,
      "source": 1
    },
    {
      "sampler": 0,
      "source": 2
    }
  ]
}
