{
  "accessors": [
    {
      "bufferView": 2,
      "componentType": 5126,
      "count": 36879,
      "max": [
        21.989463806152344,
        4.357019901275635,
        10.14687442779541
      ],
      "min": [
        17.013994216918945,
        -0.3938412070274353,
        7.855949878692627
      ],
      "type": "VEC3"
    },
    {
      "bufferView": 2,
      "byteOffset": 442548,
      "componentType": 5126,
      "count": 36879,
      "max": [
        0.9997488260269165,
        0.9998604655265808,
        0.9999978542327881
      ],
      "min": [
        -0.9998394250869751,
        -0.9998407959938049,
        -0.9998323321342468
      ],
      "type": "VEC3"
    },
    {
      "bufferView": 3,
      "componentType": 5126,
      "count": 36879,
      "max": [
        0.9999681115150452,
        0.9999997019767761,
        0.9998490214347839,
        1.0
      ],
      "min": [
        -0.9999642968177795,
        -0.9999943375587463,
        -0.9996268153190613,
        -1.0
      ],
      "type": "VEC4"
    },
    {
      "bufferView": 1,
      "componentType": 5126,
      "count": 36879,
      "max": [
        0.9947810769081116,
        0.9990023374557495
      ],
      "min": [
        0.0012706350535154343,
        0.0010033721337094903
      ],
      "type": "VEC2"
    },
    {
      "bufferView": 0,
      "componentType": 5125,
      "count": 195087,
      "type": "SCALAR"
    }
  ],
  "asset": {
    "extras": {
      "author": "3dhdscan (https://sketchfab.com/3dhdscan)",
      "license": "CC-BY-4.0 (http://creativecommons.org/licenses/by/4.0/)",
      "source": "https://sketchfab.com/3d-models/big-boulder-d25c7784bc68468d88add544db970e3f",
      "title": "Big Boulder"
    },
    "generator": "Sketchfab-12.67.0",
    "version": "2.0"
  },
  "bufferViews": [
    {
      "buffer": 0,
      "byteLength": 780348,
      "name": "floatBufferViews",
      "target": 34963
    },
    {
      "buffer": 0,
      "byteLength": 295032,
      "byteOffset": 780348,
      "byteStride": 8,
      "name": "floatBufferViews",
      "target": 34962
    },
    {
      "buffer": 0,
      "byteLength": 885096,
      "byteOffset": 1075380,
      "byteStride": 12,
      "name": "floatBufferViews",
      "target": 34962
    },
    {
      "buffer": 0,
      "byteLength": 590064,
      "byteOffset": 1960476,
      "byteStride": 16,
      "name": "floatBufferViews",
      "target": 34962
    }
  ],
  "buffers": [
    {
      "byteLength": 2550540,
      "uri": "scene.bin"
    }
  ],
  "images": [
    {
      "uri": "textures/Scene_-_Root_baseColor.jpeg"
    },
    {
      "uri": "textures/Scene_-_Root_metallicRoughness.png"
    },
    {
      "uri": "textures/Scene_-_Root_normal.jpeg"
    }
  ],
  "materials": [
    {
      "doubleSided": true,
      "name": "Scene_-_Root",
      "normalTexture": {
        "index": 2
      },
      "occlusionTexture": {
        "index": 1
      },
      "pbrMetallicRoughness": {
        "baseColorTexture": {
          "index": 0
        },
        "metallicFactor": 0.0,
        "metallicRoughnessTexture": {
          "index": 1
        },
        "roughnessFactor": 0.7456173780487805
      }
    }
  ],
  "meshes": [
    {
      "name": "big_boulder__0",
      "primitives": [
        {
          "attributes": {
            "NORMAL": 1,
            "POSITION": 0,
            "TANGENT": 2,
            "TEXCOORD_0": 3
          },
          "indices": 4,
          "material": 0,
          "mode": 4
        }
      ]
    }
  ],
  "nodes": [
    {
      "children": [
        1
      ],
      "matrix": [
        -0.003737768391147256,
        -1.0588235710401502e-18,
        -2.35106061516921e-34,
        0.0,
        0.0,
        8.299513057135623e-19,
        -0.003737768391147256,
        0.0,
        1.0588235710401502e-18,
        -0.003737768391147256,
        -8.299513057135623e-19,
        0.0,
        396.3179626464844,
        -1800.282470703125,
        -3.9974300996073464e-13,
        1.0
      ],
      "name": "Sketchfab_model"
    },
    {
      "children": [
        2
      ],
      "matrix": [
        1.0,
        0.0,
        0.0,
        0.0,
        0.0,
        -1.0,
        0.0,
        0.0,
        0.0,
        0.0,
        -1.0,
        0.0,
        0.0,
        0.0,
        0.0,
        1.0
      ],
      "name": "big_boulder.FBX"
    },
    {
      "children": [
        3
      ],
      "name": "RootNode"
    },
    {
      "children": [
        4
      ],
      "matrix": [
        -4.371138873082714e-06,
        -99.9999999999999,
        0.0,
        0.0,
        99.9999999999999,
        -4.371138873082714e-06,
        0.0,
        0.0,
        0.0,
        0.0,
        100.0,
        0.0,
        0.0,
        0.0,
        0.0,
        1.0
      ],
      "name": "big_boulder"
    },
    {
      "mesh": 0,
      "name": "big_boulder__0"
    }
  ],
  "samplers": [
    {
      "magFilter": 9729,
      "minFilter": 9987,
      "wrapS": 10497,
      "wrapT": 10497
    }
  ],
  "scene": 0,
  "scenes": [
    {
      "name": "Sketchfab_Scene",
      "nodes": [
        0
      ]
    }
  ],
  "textures": [
    {
      "sampler": 0,
      "source": 0
    },
    {
      "sampler": 0,
      "source": 1
    },
    {
      "sampler": 0,
      "source": 2
    }
  ]
}
