{
  "accessors": [
    {
      "bufferView": 2,
      "componentType": 5126,
      "count": 1875,
      "max": [
        2.092247486114502,
        0.32689499855041504,
        0.5703433156013489
      ],
      "min": [
        -1.7322170734405518,
        -0.32689499855041504,
        -0.5190339088439941
      ],
      "type": "VEC3"
    },
    {
      "bufferView": 2,
      "byteOffset": 22500,
      "componentType": 5126,
      "count": 1875,
      "max": [
        1.0,
        1.0,
        1.0
      ],
      "min": [
        -1.0,
        -1.0,
        -1.0
      ],
      "type": "VEC3"
    },
    {
      "bufferView": 1,
      "componentType": 5126,
      "count": 1875,
      "max": [
        0.875,
        1.0
      ],
      "min": [
        0.125,
        0.0
      ],
      "type": "VEC2"
    },
    {
      "bufferView": 0,
      "componentType": 5125,
      "count": 3168,
      "type": "SCALAR"
    },
    {
      "bufferView": 2,
      "byteOffset": 45000,
      "componentType": 5126,
      "count": 416,
      "max": [
        1.7981369495391846,
        0.3407900333404541,
        -0.18856775760650635
      ],
      "min": [
        0.5710776448249817,
        -0.3407900333404541,
        -0.2930988371372223
      ],
      "type": "VEC3"
    },
    {
      "bufferView": 2,
      "byteOffset": 49992,
      "componentType": 5126,
      "count": 416,
      "max": [
        1.0,
        1.0,
        1.0
      ],
      "min": [
        -1.0,
        -1.0,
        -1.0
      ],
      "type": "VEC3"
    },
    {
      "bufferView": 1,
      "byteOffset": 15000,
      "componentType": 5126,
      "count": 416,
      "max": [
        0.875,
        1.0
      ],
      "min": [
        0.125,
        0.0
      ],
      "type": "VEC2"
    },
    {
      "bufferView": 0,
      "byteOffset": 12672,
      "componentType": 5125,
      "count": 648,
      "type": "SCALAR"
    },
    {
      "bufferView": 2,
      "byteOffset": 54984,
      "componentType": 5126,
      "count": 1276,
      "max": [
        11.003355979919434,
        0.6445599794387817,
        0.8613156080245972
      ],
      "min": [
        -0.392181932926178,
        -0.6445599794387817,
        -5.109011650085449
      ],
      "type": "VEC3"
    },
    {
      "bufferView": 2,
      "byteOffset": 70296,
      "componentType": 5126,
      "count": 1276,
      "max": [
        0.9998729825019836,
        1.0,
        0.9999232292175293
      ],
      "min": [
        -0.9944999814033508,
        -1.0,
        -0.9968836903572083
      ],
      "type": "VEC3"
    },
    {
      "bufferView": 1,
      "byteOffset": 18328,
      "componentType": 5126,
      "count": 1276,
      "max": [
        0.875,
        1.0
      ],
      "min": [
        0.125,
        0.0
      ],
      "type": "VEC2"
    },
    {
      "bufferView": 0,
      "byteOffset": 15264,
      "componentType": 5125,
      "count": 1914,
      "type": "SCALAR"
    },
    {
      "bufferView": 2,
      "byteOffset": 85608,
      "componentType": 5126,
      "count": 198,
      "max": [
        11.345353126525879,
        0.5285971760749817,
        -0.49881863594055176
      ],
      "min": [
        10.918784141540527,
        -0.5285971760749817,
        -5.038004398345947
      ],
      "type": "VEC3"
    },
    {
      "bufferView": 2,
      "byteOffset": 87984,
      "componentType": 5126,
      "count": 198,
      "max": [
        1.0,
        1.0,
        0.9999989867210388
      ],
      "min": [
        0.0,
        -1.0,
        -0.739774227142334
      ],
      "type": "VEC3"
    },
    {
      "bufferView": 1,
      "byteOffset": 28536,
      "componentType": 5126,
      "count": 198,
      "max": [
        0.6250000596046448,
        0.7500001192092896
      ],
      "min": [
        0.3749999403953552,
        0.4999999403953552
      ],
      "type": "VEC2"
    },
    {
      "bufferView": 0,
      "byteOffset": 22920,
      "componentType": 5125,
      "count": 318,
      "type": "SCALAR"
    },
    {
      "bufferView": 2,
      "byteOffset": 90360,
      "componentType": 5126,
      "count": 718,
      "max": [
        0.182953879237175,
        0.22831739485263824,
        0.22142437100410461
      ],
      "min": [
        -0.1772058606147766,
        -0.22831739485263824,
        -0.9152003526687622
      ],
      "type": "VEC3"
    },
    {
      "bufferView": 2,
      "byteOffset": 98976,
      "componentType": 5126,
      "count": 718,
      "max": [
        1.0,
        1.0,
        1.0
      ],
      "min": [
        -1.0,
        -1.0,
        -1.0
      ],
      "type": "VEC3"
    },
    {
      "bufferView": 1,
      "byteOffset": 30120,
      "componentType": 5126,
      "count": 718,
      "max": [
        0.6250001192092896,
        0.7500000596046448
      ],
      "min": [
        0.3749999701976776,
        0.5
      ],
      "type": "VEC2"
    },
    {
      "bufferView": 0,
      "byteOffset": 24192,
      "componentType": 5125,
      "count": 1164,
      "type": "SCALAR"
    },
    {
      "bufferView": 2,
      "byteOffset": 107592,
      "componentType": 5126,
      "count": 870,
      "max": [
        1.364295244216919,
        0.23928384482860565,
        0.23928384482860565
      ],
      "min": [
        -7.545490741729736,
        -0.23928384482860565,
        -0.23928384482860565
      ],
      "type": "VEC3"
    },
    {
      "bufferView": 2,
      "byteOffset": 118032,
      "componentType": 5126,
      "count": 870,
      "max": [
        1.0,
        1.0,
        1.0
      ],
      "min": [
        -1.0,
        -1.0,
        -1.0
      ],
      "type": "VEC3"
    },
    {
      "bufferView": 1,
      "byteOffset": 35864,
      "componentType": 5126,
      "count": 870,
      "max": [
        0.625,
        0.75
      ],
      "min": [
        0.375,
        0.5
      ],
      "type": "VEC2"
    },
    {
      "bufferView": 0,
      "byteOffset": 28848,
      "componentType": 5125,
      "count": 1332,
      "type": "SCALAR"
    },
    {
      "bufferView": 2,
      "byteOffset": 128472,
      "componentType": 5126,
      "count": 166,
      "max": [
        1.0,
        1.4083980321884155,
        4.056931495666504
      ],
      "min": [
        -11.45700454711914,
        -1.4083980321884155,
        -5.650528907775879
      ],
      "type": "VEC3"
    },
    {
      "bufferView": 2,
      "byteOffset": 130464,
      "componentType": 5126,
      "count": 166,
      "max": [
        1.0,
        1.0,
        1.0
      ],
      "min": [
        -1.0,
        -1.0,
        -1.0
      ],
      "type": "VEC3"
    },
    {
      "bufferView": 1,
      "byteOffset": 42824,
      "componentType": 5126,
      "count": 166,
      "max": [
        0.875,
        1.0
      ],
      "min": [
        0.125,
        0.0
      ],
      "type": "VEC2"
    },
    {
      "bufferView": 0,
      "byteOffset": 34176,
      "componentType": 5125,
      "count": 312,
      "type": "SCALAR"
    },
    {
      "bufferView": 2,
      "byteOffset": 132456,
      "componentType": 5126,
      "count": 276,
      "max": [
        0.7041113376617432,
        0.16013272106647491,
        0.16771838068962097
      ],
      "min": [
        -1.506965160369873,
        -0.16013272106647491,
        -0.187951922416687
      ],
      "type": "VEC3"
    },
    {
      "bufferView": 2,
      "byteOffset": 135768,
      "componentType": 5126,
      "count": 276,
      "max": [
        1.0,
        1.0,
        1.0
      ],
      "min": [
        -1.0,
        -1.0,
        -1.0
      ],
      "type": "VEC3"
    },
    {
      "bufferView": 1,
      "byteOffset": 44152,
      "componentType": 5126,
      "count": 276,
      "max": [
        0.5416666269302368,
        1.0
      ],
      "min": [
        0.125,
        0.625
      ],
      "type": "VEC2"
    },
    {
      "bufferView": 0,
      "byteOffset": 35424,
      "componentType": 5125,
      "count": 456,
      "type": "SCALAR"
    },
    {
      "bufferView": 2,
      "byteOffset": 139080,
      "componentType": 5126,
      "count": 100,
      "max": [
        1.0,
        0.4662942886352539,
        -0.17464780807495117
      ],
      "min": [
        -1.1229281425476074,
        -0.4662942886352539,
        -5.0041823387146
      ],
      "type": "VEC3"
    },
    {
      "bufferView": 2,
      "byteOffset": 140280,
      "componentType": 5126,
      "count": 100,
      "max": [
        1.0,
        1.0,
        1.0
      ],
      "min": [
        -0.9998811483383179,
        -1.0,
        -0.8879552483558655
      ],
      "type": "VEC3"
    },
    {
      "bufferView": 1,
      "byteOffset": 46360,
      "componentType": 5126,
      "count": 100,
      "max": [
        0.875,
        1.0
      ],
      "min": [
        0.125,
        0.0
      ],
      "type": "VEC2"
    },
    {
      "bufferView": 0,
      "byteOffset": 37248,
      "componentType": 5125,
      "count": 156,
      "type": "SCALAR"
    },
    {
      "bufferView": 2,
      "byteOffset": 141480,
      "componentType": 5126,
      "count": 258,
      "max": [
        2.2884984016418457,
        0.2745732367038727,
        -0.0564364492893219
      ],
      "min": [
        -2.5830204486846924,
        -0.27457329630851746,
        -1.7063829898834229
      ],
      "type": "VEC3"
    },
    {
      "bufferView": 2,
      "byteOffset": 144576,
      "componentType": 5126,
      "count": 258,
      "max": [
        1.0,
        1.0,
        1.0
      ],
      "min": [
        -1.0,
        -1.0,
        -1.0
      ],
      "type": "VEC3"
    },
    {
      "bufferView": 1,
      "byteOffset": 47160,
      "componentType": 5126,
      "count": 258,
      "max": [
        0.875,
        1.0
      ],
      "min": [
        0.125,
        0.0
      ],
      "type": "VEC2"
    },
    {
      "bufferView": 0,
      "byteOffset": 37872,
      "componentType": 5125,
      "count": 528,
      "type": "SCALAR"
    },
    {
      "bufferView": 2,
      "byteOffset": 147672,
      "componentType": 5126,
      "count": 416,
      "max": [
        1.9964683055877686,
        0.30790773034095764,
        -0.42789846658706665
      ],
      "min": [
        -1.339019775390625,
        -0.30790773034095764,
        -0.7198271751403809
      ],
      "type": "VEC3"
    },
    {
      "bufferView": 2,
      "byteOffset": 152664,
      "componentType": 5126,
      "count": 416,
      "max": [
        1.0,
        1.0,
        1.0
      ],
      "min": [
        -1.0,
        -1.0,
        -1.0
      ],
      "type": "VEC3"
    },
    {
      "bufferView": 1,
      "byteOffset": 49224,
      "componentType": 5126,
      "count": 416,
      "max": [
        0.875,
        1.0
      ],
      "min": [
        0.125,
        0.0
      ],
      "type": "VEC2"
    },
    {
      "bufferView": 0,
      "byteOffset": 39984,
      "componentType": 5125,
      "count": 648,
      "type": "SCALAR"
    },
    {
      "bufferView": 2,
      "byteOffset": 157656,
      "componentType": 5126,
      "count": 1149,
      "max": [
        0.39696794748306274,
        0.17385567724704742,
        0.17385567724704742
      ],
      "min": [
        -0.21806606650352478,
        -0.17385567724704742,
        -0.17385567724704742
      ],
      "type": "VEC3"
    },
    {
      "bufferView": 2,
      "byteOffset": 171444,
      "componentType": 5126,
      "count": 1149,
      "max": [
        1.0,
        1.0,
        1.0
      ],
      "min": [
        -1.0,
        -1.0,
        -1.0
      ],
      "type": "VEC3"
    },
    {
      "bufferView": 1,
      "byteOffset": 52552,
      "componentType": 5126,
      "count": 1149,
      "max": [
        0.875,
        1.0
      ],
      "min": [
        0.125,
        0.2499999701976776
      ],
      "type": "VEC2"
    },
    {
      "bufferView": 0,
      "byteOffset": 42576,
      "componentType": 5125,
      "count": 1884,
      "type": "SCALAR"
    },
    {
      "bufferView": 2,
      "byteOffset": 185232,
      "componentType": 5126,
      "count": 576,
      "max": [
        2.8537349700927734,
        0.24448351562023163,
        0.24448350071907043
      ],
      "min": [
        -1.1545202732086182,
        -0.24448351562023163,
        -0.24448353052139282
      ],
      "type": "VEC3"
    },
    {
      "bufferView": 2,
      "byteOffset": 192144,
      "componentType": 5126,
      "count": 576,
      "max": [
        1.0,
        1.0,
        1.0
      ],
      "min": [
        -1.0,
        -1.0,
        -1.0
      ],
      "type": "VEC3"
    },
    {
      "bufferView": 1,
      "byteOffset": 61744,
      "componentType": 5126,
      "count": 576,
      "max": [
        0.875,
        1.0
      ],
      "min": [
        0.125,
        0.25
      ],
      "type": "VEC2"
    },
    {
      "bufferView": 0,
      "byteOffset": 50112,
      "componentType": 5125,
      "count": 864,
      "type": "SCALAR"
    },
    {
      "bufferView": 2,
      "byteOffset": 199056,
      "componentType": 5126,
      "count": 3024,
      "max": [
        13.691054344177246,
        1.131133794784546,
        1.1346282958984375
      ],
      "min": [
        -6.525044918060303,
        -1.131133794784546,
        -1.1346282958984375
      ],
      "type": "VEC3"
    },
    {
      "bufferView": 2,
      "byteOffset": 235344,
      "componentType": 5126,
      "count": 3024,
      "max": [
        1.0,
        1.0,
        1.0
      ],
      "min": [
        -1.0,
        -1.0,
        -1.0
      ],
      "type": "VEC3"
    },
    {
      "bufferView": 1,
      "byteOffset": 66352,
      "componentType": 5126,
      "count": 3024,
      "max": [
        0.875,
        1.0
      ],
      "min": [
        0.125,
        0.25
      ],
      "type": "VEC2"
    },
    {
      "bufferView": 0,
      "byteOffset": 53568,
      "componentType": 5125,
      "count": 4536,
      "type": "SCALAR"
    },
    {
      "bufferView": 2,
      "byteOffset": 271632,
      "componentType": 5126,
      "count": 378,
      "max": [
        -0.07200773805379868,
        0.5189181566238403,
        0.011622876860201359
      ],
      "min": [
        -0.1512679010629654,
        0.052473634481430054,
        -0.13306567072868347
      ],
      "type": "VEC3"
    },
    {
      "bufferView": 2,
      "byteOffset": 276168,
      "componentType": 5126,
      "count": 378,
      "max": [
        1.0,
        0.9198430776596069,
        1.0
      ],
      "min": [
        -1.0,
        -1.0,
        -1.0
      ],
      "type": "VEC3"
    },
    {
      "bufferView": 1,
      "byteOffset": 90544,
      "componentType": 5126,
      "count": 378,
      "max": [
        0.875,
        1.0
      ],
      "min": [
        0.125,
        0.0
      ],
      "type": "VEC2"
    },
    {
      "bufferView": 0,
      "byteOffset": 71712,
      "componentType": 5125,
      "count": 612,
      "type": "SCALAR"
    },
    {
      "bufferView": 2,
      "byteOffset": 280704,
      "componentType": 5126,
      "count": 564,
      "max": [
        1.2960741519927979,
        0.28454717993736267,
        0.28454717993736267
      ],
      "min": [
        -7.292637825012207,
        -0.28454717993736267,
        -0.28454717993736267
      ],
      "type": "VEC3"
    },
    {
      "bufferView": 2,
      "byteOffset": 287472,
      "componentType": 5126,
      "count": 564,
      "max": [
        1.0,
        1.0,
        1.0
      ],
      "min": [
        -1.0,
        -1.0,
        -1.0
      ],
      "type": "VEC3"
    },
    {
      "bufferView": 1,
      "byteOffset": 93568,
      "componentType": 5126,
      "count": 564,
      "max": [
        0.875,
        1.0
      ],
      "min": [
        0.125,
        0.25
      ],
      "type": "VEC2"
    },
    {
      "bufferView": 0,
      "byteOffset": 74160,
      "componentType": 5125,
      "count": 864,
      "type": "SCALAR"
    },
    {
      "bufferView": 2,
      "byteOffset": 294240,
      "componentType": 5126,
      "count": 82,
      "max": [
        6.346120357513428,
        0.4024960398674011,
        1.2934558391571045
      ],
      "min": [
        -2.0169625282287598,
        -0.4024960398674011,
        -0.3838306665420532
      ],
      "type": "VEC3"
    },
    {
      "bufferView": 2,
      "byteOffset": 295224,
      "componentType": 5126,
      "count": 82,
      "max": [
        1.0,
        1.0,
        1.0
      ],
      "min": [
        -1.0,
        -1.0,
        -1.0
      ],
      "type": "VEC3"
    },
    {
      "bufferView": 1,
      "byteOffset": 98080,
      "componentType": 5126,
      "count": 82,
      "max": [
        0.875,
        1.0
      ],
      "min": [
        0.125,
        0.0
      ],
      "type": "VEC2"
    },
    {
      "bufferView": 0,
      "byteOffset": 77616,
      "componentType": 5125,
      "count": 132,
      "type": "SCALAR"
    },
    {
      "bufferView": 2,
      "byteOffset": 296208,
      "componentType": 5126,
      "count": 204,
      "max": [
        4.87308406829834,
        1.1980067491531372,
        0.9258302450180054
      ],
      "min": [
        -4.560793876647949,
        -1.1980067491531372,
        -0.5834185481071472
      ],
      "type": "VEC3"
    },
    {
      "bufferView": 2,
      "byteOffset": 298656,
      "componentType": 5126,
      "count": 204,
      "max": [
        1.0,
        1.0,
        1.0
      ],
      "min": [
        -1.0,
        -1.0,
        -1.0
      ],
      "type": "VEC3"
    },
    {
      "bufferView": 1,
      "byteOffset": 98736,
      "componentType": 5126,
      "count": 204,
      "max": [
        0.875,
        1.0
      ],
      "min": [
        0.125,
        0.0
      ],
      "type": "VEC2"
    },
    {
      "bufferView": 0,
      "byteOffset": 78144,
      "componentType": 5125,
      "count": 396,
      "type": "SCALAR"
    },
    {
      "bufferView": 2,
      "byteOffset": 301104,
      "componentType": 5126,
      "count": 422,
      "max": [
        1.610062837600708,
        1.0856972932815552,
        0.7766300439834595
      ],
      "min": [
        -2.9750823974609375,
        -1.0856972932815552,
        -1.0
      ],
      "type": "VEC3"
    },
    {
      "bufferView": 2,
      "byteOffset": 306168,
      "componentType": 5126,
      "count": 422,
      "max": [
        1.0,
        1.0,
        1.0
      ],
      "min": [
        -1.0,
        -1.0,
        -1.0
      ],
      "type": "VEC3"
    },
    {
      "bufferView": 1,
      "byteOffset": 100368,
      "componentType": 5126,
      "count": 422,
      "max": [
        0.875,
        1.0
      ],
      "min": [
        0.125,
        0.0
      ],
      "type": "VEC2"
    },
    {
      "bufferView": 0,
      "byteOffset": 79728,
      "componentType": 5125,
      "count": 648,
      "type": "SCALAR"
    },
    {
      "bufferView": 2,
      "byteOffset": 311232,
      "componentType": 5126,
      "count": 204,
      "max": [
        2.3144519329071045,
        2.775909423828125,
        1.758493185043335
      ],
      "min": [
        -5.85900354385376,
        -2.775909423828125,
        -1.0
      ],
      "type": "VEC3"
    },
    {
      "bufferView": 2,
      "byteOffset": 313680,
      "componentType": 5126,
      "count": 204,
      "max": [
        0.9707760214805603,
        1.0,
        1.0
      ],
      "min": [
        -0.9707692861557007,
        -1.0,
        -1.0
      ],
      "type": "VEC3"
    },
    {
      "bufferView": 1,
      "byteOffset": 103744,
      "componentType": 5126,
      "count": 204,
      "max": [
        0.875,
        1.0
      ],
      "min": [
        0.125,
        0.0
      ],
      "type": "VEC2"
    },
    {
      "bufferView": 0,
      "byteOffset": 82320,
      "componentType": 5125,
      "count": 348,
      "type": "SCALAR"
    }
  ],
  "asset": {
    "extras": {
      "author": "Jesper.Purizaga (https://sketchfab.com/Jesper.Purizaga)",
      "license": "CC-BY-4.0 (http://creativecommons.org/licenses/by/4.0/)",
      "source": "https://sketchfab.com/3d-models/lowpoly-remington-11-87-7d4d5a3ddcb4486b8c6820bc3e21e861",
      "title": "LowPoly Remington 11-87"
    },
    "generator": "Sketchfab-15.42.0",
    "version": "2.0"
  },
  "bufferViews": [
    {
      "buffer": 0,
      "byteLength": 83712,
      "name": "floatBufferViews",
      "target": 34963
    },
    {
      "buffer": 0,
      "byteLength": 105376,
      "byteOffset": 83712,
      "byteStride": 8,
      "name": "floatBufferViews",
      "target": 34962
    },
    {
      "buffer": 0,
      "byteLength": 316128,
      "byteOffset": 189088,
      "byteStride": 12,
      "name": "floatBufferViews",
      "target": 34962
    }
  ],
  "buffers": [
    {
      "byteLength": 505216,
      "uri": "scene.bin"
    }
  ],
  "extensionsUsed": [
    "KHR_materials_specular"
  ],
  "materials": [
    {
      "doubleSided": true,
      "name": "Material.001",
      "pbrMetallicRoughness": {
        "baseColorFactor": [
          0.0195439,
          0.0195439,
          0.0195439,
          1.0
        ],
        "metallicFactor": 0.3762229337995918,
        "roughnessFactor": 0.4308800213055889
      }
    },
    {
      "doubleSided": true,
      "name": "Material.004",
      "pbrMetallicRoughness": {
        "baseColorFactor": [
          0.0358316,
          0.0358316,
          0.0358316,
          1.0
        ],
        "metallicFactor": 0.0,
        "roughnessFactor": 0.9919878106657418
      }
    },
    {
      "doubleSided": true,
      "extensions": {
        "KHR_materials_specular": {
          "specularColorFactor": [
            1.0,
            1.0,
            1.0
          ],
          "specularFactor": 0.5098291477031403
        }
      },
      "name": "Material.002",
      "pbrMetallicRoughness": {
        "baseColorFactor": [
          0.00533285,
          0.00533285,
          0.00533285,
          1.0
        ],
        "metallicFactor": 0.38229594352248036
      }
    },
    {
      "doubleSided": true,
      "name": "Material.003",
      "pbrMetallicRoughness": {
        "baseColorFactor": [
          0.0868872,
          0.0868872,
          0.0868872,
          1.0
        ],
        "metallicFactor": 0.6191433227151344
      }
    }
  ],
  "meshes": [
    {
      "name": "Cube_Material.001_0",
      "primitives": [
        {
          "attributes": {
            "NORMAL": 1,
            "POSITION": 0,
            "TEXCOORD_0": 2
          },
          "indices": 3,
          "material": 0,
          "mode": 4
        }
      ]
    },
    {
      "name": "Cube_Material.004_0",
      "primitives": [
        {
          "attributes": {
            "NORMAL": 5,
            "POSITION": 4,
            "TEXCOORD_0": 6
          },
          "indices": 7,
          "material": 1,
          "mode": 4
        }
      ]
    },
    {
      "name": "Cube.001_Material.002_0",
      "primitives": [
        {
          "attributes": {
            "NORMAL": 9,
            "POSITION": 8,
            "TEXCOORD_0": 10
          },
          "indices": 11,
          "material": 2,
          "mode": 4
        }
      ]
    },
    {
      "name": "Cube.001_Material.001_0",
      "primitives": [
        {
          "attributes": {
            "NORMAL": 13,
            "POSITION": 12,
            "TEXCOORD_0": 14
          },
          "indices": 15,
          "material": 0,
          "mode": 4
        }
      ]
    },
    {
      "name": "Cube.003_Material.001_0",
      "primitives": [
        {
          "attributes": {
            "NORMAL": 17,
            "POSITION": 16,
            "TEXCOORD_0": 18
          },
          "indices": 19,
          "material": 0,
          "mode": 4
        }
      ]
    },
    {
      "name": "Cube.004_Material.001_0",
      "primitives": [
        {
          "attributes": {
            "NORMAL": 21,
            "POSITION": 20,
            "TEXCOORD_0": 22
          },
          "indices": 23,
          "material": 0,
          "mode": 4
        }
      ]
    },
    {
      "name": "Cube.008_Material.001_0",
      "primitives": [
        {
          "attributes": {
            "NORMAL": 25,
            "POSITION": 24,
            "TEXCOORD_0": 26
          },
          "indices": 27,
          "material": 0,
          "mode": 4
        }
      ]
    },
    {
      "name": "Cube.005_Material.002_0",
      "primitives": [
        {
          "attributes": {
            "NORMAL": 29,
            "POSITION": 28,
            "TEXCOORD_0": 30
          },
          "indices": 31,
          "material": 2,
          "mode": 4
        }
      ]
    },
    {
      "name": "Cube.007_Material.001_0",
      "primitives": [
        {
          "attributes": {
            "NORMAL": 33,
            "POSITION": 32,
            "TEXCOORD_0": 34
          },
          "indices": 35,
          "material": 0,
          "mode": 4
        }
      ]
    },
    {
      "name": "Cube.006_Material.001_0",
      "primitives": [
        {
          "attributes": {
            "NORMAL": 37,
            "POSITION": 36,
            "TEXCOORD_0": 38
          },
          "indices": 39,
          "material": 0,
          "mode": 4
        }
      ]
    },
    {
      "name": "Cube.006_Material.004_0",
      "primitives": [
        {
          "attributes": {
            "NORMAL": 41,
            "POSITION": 40,
            "TEXCOORD_0": 42
          },
          "indices": 43,
          "material": 1,
          "mode": 4
        }
      ]
    },
    {
      "name": "Cube.009_Material.003_0",
      "primitives": [
        {
          "attributes": {
            "NORMAL": 45,
            "POSITION": 44,
            "TEXCOORD_0": 46
          },
          "indices": 47,
          "material": 3,
          "mode": 4
        }
      ]
    },
    {
      "name": "Cube.010_Material.001_0",
      "primitives": [
        {
          "attributes": {
            "NORMAL": 49,
            "POSITION": 48,
            "TEXCOORD_0": 50
          },
          "indices": 51,
          "material": 0,
          "mode": 4
        }
      ]
    },
    {
      "name": "Cubo.008_Material.003_0",
      "primitives": [
        {
          "attributes": {
            "NORMAL": 53,
            "POSITION": 52,
            "TEXCOORD_0": 54
          },
          "indices": 55,
          "material": 3,
          "mode": 4
        }
      ]
    },
    {
      "name": "Cube.011_Material.003_0",
      "primitives": [
        {
          "attributes": {
            "NORMAL": 57,
            "POSITION": 56,
            "TEXCOORD_0": 58
          },
          "indices": 59,
          "material": 3,
          "mode": 4
        }
      ]
    },
    {
      "name": "Cube.012_Material.001_0",
      "primitives": [
        {
          "attributes": {
            "NORMAL": 61,
            "POSITION": 60,
            "TEXCOORD_0": 62
          },
          "indices": 63,
          "material": 0,
          "mode": 4
        }
      ]
    },
    {
      "name": "Cube.013_Material.001_0",
      "primitives": [
        {
          "attributes": {
            "NORMAL": 65,
            "POSITION": 64,
            "TEXCOORD_0": 66
          },
          "indices": 67,
          "material": 0,
          "mode": 4
        }
      ]
    },
    {
      "name": "Cube.014_Material.001_0",
      "primitives": [
        {
          "attributes": {
            "NORMAL": 69,
            "POSITION": 68,
            "TEXCOORD_0": 70
          },
          "indices": 71,
          "material": 0,
          "mode": 4
        }
      ]
    },
    {
      "name": "Cube.015_Material.001_0",
      "primitives": [
        {
          "attributes": {
            "NORMAL": 73,
            "POSITION": 72,
            "TEXCOORD_0": 74
          },
          "indices": 75,
          "material": 0,
          "mode": 4
        }
      ]
    },
    {
      "name": "Cube.016_Material.001_0",
      "primitives": [
        {
          "attributes": {
            "NORMAL": 77,
            "POSITION": 76,
            "TEXCOORD_0": 78
          },
          "indices": 79,
          "material": 0,
          "mode": 4
        }
      ]
    }
  ],
  "nodes": [
    {
      "children": [
        1
      ],
      "matrix": [
        1.0,
        2.2089192543271616e-16,
        1.7282305713894093e-16,
        0.0,
        1.7168541248143956e-16,
        0.005139875225723012,
        -0.9999867677688599,
        0.0,
        -2.2177728662083377e-16,
        0.9999867677688599,
        0.005139875225723012,
        0.0,
        0.0,
        0.0,
        0.0,
        1.0
      ],
      "name": "Sketchfab_model"
    },
    {
      "children": [
        2
      ],
      "matrix": [
        0.009999999776482582,
        0.0,
        0.0,
        0.0,
        0.0,
        0.0,
        0.009999999776482582,
        0.0,
        0.0,
        -0.009999999776482582,
        0.0,
        0.0,
        0.0,
        0.0,
        0.0,
        1.0
      ],
      "name": "Remington 11-87.fbx"
    },
    {
      "children": [
        3,
        6,
        9,
        12,
        14,
        16,
        18,
        20,
        22,
        25,
        27,
        29,
        31,
        33,
        35,
        37,
        39,
        41,
        43,
        46,
        49,
        52,
        55,
        58,
        61
      ],
      "name": "RootNode"
    },
    {
      "children": [
        4
      ],
      "matrix": [
        -48.788123812281746,
        -9.257121304011697,
        -160.21538031394007,
        0.0,
        95.00383527070555,
        133.29416910883546,
        -36.631808749487995,
        0.0,
        129.34038003830153,
        -101.39979383765949,
        -33.527394641848026,
        0.0,
        656.240478515625,
        263.71038818359375,
        -630.46630859375,
        1.0
      ],
      "name": "Light"
    },
    {
      "children": [
        5
      ],
      "matrix": [
        1.0,
        0.0,
        0.0,
        0.0,
        0.0,
        2.220446049250313e-16,
        1.0,
        0.0,
        0.0,
        -1.0,
        2.220446049250313e-16,
        0.0,
        0.0,
        0.0,
        0.0,
        1.0
      ],
      "name": "Object_4"
    },
    {
      "name": "Object_5"
    },
    {
      "children": [
        7,
        8
      ],
      "matrix": [
        29.331279754638672,
        0.0,
        0.0,
        0.0,
        0.0,
        2.21445001401735e-06,
        -29.331279754638587,
        0.0,
        0.0,
        29.331279754638587,
        2.21445001401735e-06,
        0.0,
        -0.36224499344825745,
        3.5598700046539307,
        0.0,
        1.0
      ],
      "name": "Cube"
    },
    {
      "mesh": 0,
      "name": "Cube_Material.001_0"
    },
    {
      "mesh": 1,
      "name": "Cube_Material.004_0"
    },
    {
      "children": [
        10,
        11
      ],
      "matrix": [
        14.797246932983398,
        0.0,
        0.0,
        0.0,
        0.0,
        -2.410777523450349e-06,
        -14.797246932983203,
        0.0,
        0.0,
        14.797246932983203,
        -2.410777523450349e-06,
        0.0,
        62.149810791015625,
        -1.3237565755844116,
        0.0,
        1.0
      ],
      "name": "Cube.001"
    },
    {
      "mesh": 2,
      "name": "Cube.001_Material.002_0"
    },
    {
      "mesh": 3,
      "name": "Cube.001_Material.001_0"
    },
    {
      "children": [
        13
      ],
      "matrix": [
        29.262537002563477,
        0.0,
        0.0,
        0.0,
        -0.0,
        -4.767472409186248e-06,
        -29.26253700256309,
        0.0,
        0.0,
        29.26253700256309,
        -4.767472409186248e-06,
        0.0,
        -270.00335693359375,
        10.886722564697266,
        0.0,
        1.0
      ],
      "name": "Cube.003"
    },
    {
      "mesh": 4,
      "name": "Cube.003_Material.001_0"
    },
    {
      "children": [
        15
      ],
      "matrix": [
        29.262537002563477,
        0.0,
        0.0,
        0.0,
        -0.0,
        -4.767472409186248e-06,
        -29.26253700256309,
        0.0,
        0.0,
        29.26253700256309,
        -4.767472409186248e-06,
        0.0,
        -83.82256317138672,
        -4.196366786956787,
        0.0,
        1.0
      ],
      "name": "Cube.004"
    },
    {
      "mesh": 5,
      "name": "Cube.004_Material.001_0"
    },
    {
      "children": [
        17
      ],
      "matrix": [
        3.7983551025390625,
        0.0,
        0.0,
        0.0,
        -0.0,
        -6.188305938770935e-07,
        -3.7983551025390123,
        0.0,
        0.0,
        1.1626861095428314,
        -1.894256108861659e-07,
        0.0,
        -0.36224499344825745,
        -6.898186206817627,
        0.0,
        1.0
      ],
      "name": "Cube.008"
    },
    {
      "mesh": 6,
      "name": "Cube.008_Material.001_0"
    },
    {
      "children": [
        19
      ],
      "matrix": [
        73.78424835205078,
        0.0,
        0.0,
        0.0,
        -0.0,
        -1.202097986993173e-05,
        -73.7842483520498,
        0.0,
        0.0,
        73.7842483520498,
        -1.202097986993173e-05,
        0.0,
        -98.11751556396484,
        -1.512203335762024,
        0.0,
        1.0
      ],
      "name": "Cube.005"
    },
    {
      "mesh": 7,
      "name": "Cube.005_Material.002_0"
    },
    {
      "children": [
        21
      ],
      "matrix": [
        2.7120423316955566,
        0.0,
        0.0,
        0.0,
        0.0,
        -4.418477792192467e-07,
        -2.7120423316955207,
        0.0,
        0.0,
        2.7120423316955207,
        -4.418477792192467e-07,
        0.0,
        41.292694091796875,
        -9.618158340454102,
        0.0,
        1.0
      ],
      "name": "Cube.007"
    },
    {
      "mesh": 8,
      "name": "Cube.007_Material.001_0"
    },
    {
      "children": [
        23,
        24
      ],
      "matrix": [
        11.603279113769531,
        0.0,
        0.0,
        0.0,
        0.0,
        -1.8904141163883795e-06,
        -11.603279113769378,
        0.0,
        0.0,
        11.603279113769378,
        -1.8904141163883795e-06,
        0.0,
        26.02138900756836,
        -6.3617730140686035,
        0.0,
        1.0
      ],
      "name": "Cube.006"
    },
    {
      "mesh": 9,
      "name": "Cube.006_Material.001_0"
    },
    {
      "mesh": 10,
      "name": "Cube.006_Material.004_0"
    },
    {
      "children": [
        26
      ],
      "matrix": [
        60.66275405883789,
        0.0,
        0.0,
        0.0,
        -0.0,
        -6.576808714863413e-06,
        -40.36816406249947,
        0.0,
        0.0,
        40.36816406249947,
        -6.576808714863413e-06,
        0.0,
        -32.032508850097656,
        10.886625289916992,
        0.0,
        1.0
      ],
      "name": "Cube.009"
    },
    {
      "mesh": 11,
      "name": "Cube.009_Material.003_0"
    },
    {
      "children": [
        28
      ],
      "matrix": [
        13.758286476135254,
        0.0,
        0.0,
        0.0,
        0.0,
        -2.241509379959402e-06,
        -13.758286476135073,
        0.0,
        0.0,
        13.758286476135073,
        -2.241509379959402e-06,
        0.0,
        7.882037162780762,
        10.924991607666016,
        0.0,
        1.0
      ],
      "name": "Cube.010"
    },
    {
      "mesh": 12,
      "name": "Cube.010_Material.001_0"
    },
    {
      "children": [
        30
      ],
      "matrix": [
        2.658670425415039,
        0.0,
        0.0,
        0.0,
        0.0,
        -5.531711328409999e-07,
        -3.3953402042388467,
        0.0,
        0.0,
        3.3953402042388467,
        -5.531711328409999e-07,
        0.0,
        12.054952621459961,
        10.984382629394531,
        0.0,
        1.0
      ],
      "name": "Cubo.008"
    },
    {
      "mesh": 13,
      "name": "Cubo.008_Material.003_0"
    },
    {
      "children": [
        32
      ],
      "matrix": [
        60.66275405883789,
        0.0,
        0.0,
        0.0,
        -0.0,
        -6.576808714863413e-06,
        -40.36816406249947,
        0.0,
        0.0,
        40.36816406249947,
        -6.576808714863413e-06,
        0.0,
        -32.032508850097656,
        10.886625289916992,
        0.0,
        1.0
      ],
      "name": "Cube.011"
    },
    {
      "mesh": 14,
      "name": "Cube.011_Material.003_0"
    },
    {
      "children": [
        34
      ],
      "matrix": [
        29.262537002563477,
        0.0,
        0.0,
        0.0,
        -0.0,
        -4.767472409186248e-06,
        -29.26253700256309,
        0.0,
        0.0,
        29.26253700256309,
        -4.767472409186248e-06,
        0.0,
        -83.82256317138672,
        10.886722564697266,
        0.0,
        1.0
      ],
      "name": "Cube.012"
    },
    {
      "mesh": 15,
      "name": "Cube.012_Material.001_0"
    },
    {
      "children": [
        36
      ],
      "matrix": [
        4.058719158172607,
        0.0,
        0.0,
        0.0,
        -0.0,
        -6.612492827101233e-07,
        -4.058719158172554,
        0.0,
        0.0,
        4.058719158172554,
        -6.612492827101233e-07,
        0.0,
        -280.69378662109375,
        17.864295959472656,
        0.0,
        1.0
      ],
      "name": "Cube.013"
    },
    {
      "mesh": 16,
      "name": "Cube.013_Material.001_0"
    },
    {
      "children": [
        38
      ],
      "matrix": [
        3.626840829849243,
        0.0,
        0.0,
        0.0,
        -0.0,
        -6.334764276659679e-07,
        -3.888250589370676,
        0.0,
        0.0,
        3.626840829849195,
        -5.908873720450724e-07,
        0.0,
        -122.09258270263672,
        18.14023780822754,
        0.0,
        1.0
      ],
      "name": "Cube.014"
    },
    {
      "mesh": 17,
      "name": "Cube.014_Material.001_0"
    },
    {
      "children": [
        40
      ],
      "matrix": [
        2.8958888053894043,
        0.0,
        0.0,
        0.0,
        -0.0,
        -6.152032884162478e-07,
        -3.7760908603667716,
        0.0,
        0.0,
        2.895888805389366,
        -4.718001716172408e-07,
        0.0,
        -117.62013244628906,
        20.44493865966797,
        0.0,
        1.0
      ],
      "name": "Cube.015"
    },
    {
      "mesh": 18,
      "name": "Cube.015_Material.001_0"
    },
    {
      "children": [
        42
      ],
      "matrix": [
        0.7834314107894897,
        0.0,
        0.0,
        0.0,
        -0.0,
        -2.0917813670283902e-07,
        -1.2839262485503982,
        0.0,
        0.0,
        0.9846445322036613,
        -1.6041895614607464e-07,
        0.0,
        -116.55297088623047,
        23.03040313720703,
        0.0,
        1.0
      ],
      "name": "Cube.016"
    },
    {
      "mesh": 19,
      "name": "Cube.016_Material.001_0"
    },
    {
      "children": [
        44
      ],
      "matrix": [
        -48.788123812281746,
        -9.257121304011697,
        -160.21538031394007,
        0.0,
        95.00383527070555,
        133.29416910883546,
        -36.631808749487995,
        0.0,
        129.34038003830153,
        -101.39979383765949,
        -33.527394641848026,
        0.0,
        656.240478515625,
        263.71038818359375,
        642.716064453125,
        1.0
      ],
      "name": "Light.001"
    },
    {
      "children": [
        45
      ],
      "matrix": [
        1.0,
        0.0,
        0.0,
        0.0,
        0.0,
        2.220446049250313e-16,
        1.0,
        0.0,
        0.0,
        -1.0,
        2.220446049250313e-16,
        0.0,
        0.0,
        0.0,
        0.0,
        1.0
      ],
      "name": "Object_44"
    },
    {
      "name": "Object_45"
    },
    {
      "children": [
        47
      ],
      "matrix": [
        -48.788123812281746,
        -9.257121304011697,
        -160.21538031394007,
        0.0,
        95.00383527070555,
        133.29416910883546,
        -36.631808749487995,
        0.0,
        129.34038003830153,
        -101.39979383765949,
        -33.527394641848026,
        0.0,
        -477.5818786621094,
        263.71038818359375,
        -630.46630859375,
        1.0
      ],
      "name": "Light.004"
    },
    {
      "children": [
        48
      ],
      "matrix": [
        1.0,
        0.0,
        0.0,
        0.0,
        0.0,
        2.220446049250313e-16,
        1.0,
        0.0,
        0.0,
        -1.0,
        2.220446049250313e-16,
        0.0,
        0.0,
        0.0,
        0.0,
        1.0
      ],
      "name": "Object_47"
    },
    {
      "name": "Object_48"
    },
    {
      "children": [
        50
      ],
      "matrix": [
        -48.788123812281746,
        -9.257121304011697,
        -160.21538031394007,
        0.0,
        95.00383527070555,
        133.29416910883546,
        -36.631808749487995,
        0.0,
        129.34038003830153,
        -101.39979383765949,
        -33.527394641848026,
        0.0,
        -477.5818786621094,
        263.71038818359375,
        642.716064453125,
        1.0
      ],
      "name": "Light.005"
    },
    {
      "children": [
        51
      ],
      "matrix": [
        1.0,
        0.0,
        0.0,
        0.0,
        0.0,
        2.220446049250313e-16,
        1.0,
        0.0,
        0.0,
        -1.0,
        2.220446049250313e-16,
        0.0,
        0.0,
        0.0,
        0.0,
        1.0
      ],
      "name": "Object_50"
    },
    {
      "name": "Object_51"
    },
    {
      "children": [
        53
      ],
      "matrix": [
        -48.788123812281746,
        -9.257121304011697,
        -160.21538031394007,
        0.0,
        95.00383527070555,
        133.29416910883546,
        -36.631808749487995,
        0.0,
        129.34038003830153,
        -101.39979383765949,
        -33.527394641848026,
        0.0,
        -477.5818786621094,
        -355.2353515625,
        642.716064453125,
        1.0
      ],
      "name": "Light.006"
    },
    {
      "children": [
        54
      ],
      "matrix": [
        1.0,
        0.0,
        0.0,
        0.0,
        0.0,
        2.220446049250313e-16,
        1.0,
        0.0,
        0.0,
        -1.0,
        2.220446049250313e-16,
        0.0,
        0.0,
        0.0,
        0.0,
        1.0
      ],
      "name": "Object_53"
    },
    {
      "name": "Object_54"
    },
    {
      "children": [
        56
      ],
      "matrix": [
        -48.788123812281746,
        -9.257121304011697,
        -160.21538031394007,
        0.0,
        95.00383527070555,
        133.29416910883546,
        -36.631808749487995,
        0.0,
        129.34038003830153,
        -101.39979383765949,
        -33.527394641848026,
        0.0,
        -477.5818786621094,
        -355.2353515625,
        -630.46630859375,
        1.0
      ],
      "name": "Light.007"
    },
    {
      "children": [
        57
      ],
      "matrix": [
        1.0,
        0.0,
        0.0,
        0.0,
        0.0,
        2.220446049250313e-16,
        1.0,
        0.0,
        0.0,
        -1.0,
        2.220446049250313e-16,
        0.0,
        0.0,
        0.0,
        0.0,
        1.0
      ],
      "name": "Object_56"
    },
    {
      "name": "Object_57"
    },
    {
      "children": [
        59
      ],
      "matrix": [
        -48.788123812281746,
        -9.257121304011697,
        -160.21538031394007,
        0.0,
        95.00383527070555,
        133.29416910883546,
        -36.631808749487995,
        0.0,
        129.34038003830153,
        -101.39979383765949,
        -33.527394641848026,
        0.0,
        656.240478515625,
        -355.2353515625,
        642.716064453125,
        1.0
      ],
      "name": "Light.010"
    },
    {
      "children": [
        60
      ],
      "matrix": [
        1.0,
        0.0,
        0.0,
        0.0,
        0.0,
        2.220446049250313e-16,
        1.0,
        0.0,
        0.0,
        -1.0,
        2.220446049250313e-16,
        0.0,
        0.0,
        0.0,
        0.0,
        1.0
      ],
      "name": "Object_59"
    },
    {
      "name": "Object_60"
    },
    {
      "children": [
        62
      ],
      "matrix": [
        -48.788123812281746,
        -9.257121304011697,
        -160.21538031394007,
        0.0,
        95.00383527070555,
        133.29416910883546,
        -36.631808749487995,
        0.0,
        129.34038003830153,
        -101.39979383765949,
        -33.527394641848026,
        0.0,
        656.240478515625,
        -355.2353515625,
        -630.46630859375,
        1.0
      ],
      "name": "Light.011"
    },
    {
      "children": [
        63
      ],
      "matrix": [
        1.0,
        0.0,
        0.0,
        0.0,
        0.0,
        2.220446049250313e-16,
        1.0,
        0.0,
        0.0,
        -1.0,
        2.220446049250313e-16,
        0.0,
        0.0,
        0.0,
        0.0,
        1.0
      ],
      "name": "Object_62"
    },
    {
      "name": "Object_63"
    }
  ],
  "scene": 0,
  "scenes": [
    {
      "name": "Sketchfab_Scene",
      "nodes": [
        0
      ]
    }
  ]
}
