{
  "accessors": [
    {
      "bufferView": 2,
      "componentType": 5126,
      "count": 278,
      "max": [
        1.0990450382232666,
        0.9046859741210938,
        0.2642329931259155
      ],
      "min": [
        -2.780503988265991,
        -0.32016000151634216,
        -0.1986510008573532
      ],
      "type": "VEC3"
    },
    {
      "bufferView": 2,
      "byteOffset": 3336,
      "componentType": 5126,
      "count": 278,
      "max": [
        0.9333224892616272,
        0.9780743718147278,
        0.99977046251297
      ],
      "min": [
        -0.9827282428741455,
        -0.9703843593597412,
        -0.9980407357215881
      ],
      "type": "VEC3"
    },
    {
      "bufferView": 3,
      "componentType": 5126,
      "count": 278,
      "max": [
        0.5495228171348572,
        0.9952656030654907,
        0.8891772627830505,
        1.0
      ],
      "min": [
        -0.4829144775867462,
        -0.9995594620704651,
        -0.9805994629859924,
        1.0
      ],
      "type": "VEC4"
    },
    {
      "bufferView": 1,
      "componentType": 5126,
      "count": 278,
      "max": [
        0.9664639830589294,
        0.9998379945755005
      ],
      "min": [
        0.012938999570906162,
        0.00016199999663513154
      ],
      "type": "VEC2"
    },
    {
      "bufferView": 0,
      "componentType": 5125,
      "count": 1152,
      "type": "SCALAR"
    },
    {
      "bufferView": 2,
      "byteOffset": 6672,
      "componentType": 5126,
      "count": 2106,
      "max": [
        5.539815902709961,
        0.9821180105209351,
        0.04368000105023384
      ],
      "min": [
        -2.8663489818573,
        -0.5663610100746155,
        -0.04591500014066696
      ],
      "type": "VEC3"
    },
    {
      "bufferView": 2,
      "byteOffset": 31944,
      "componentType": 5126,
      "count": 2106,
      "max": [
        0.9655510783195496,
        0.999972939491272,
        1.0
      ],
      "min": [
        -0.9991300702095032,
        -0.9998417496681213,
        -1.0
      ],
      "type": "VEC3"
    },
    {
      "bufferView": 1,
      "byteOffset": 2224,
      "componentType": 5126,
      "count": 2106,
      "max": [
        0.8744180202484131,
        0.9997289776802063
      ],
      "min": [
        0.00027099999715574086,
        0.00027099999715574086
      ],
      "type": "VEC2"
    },
    {
      "bufferView": 0,
      "byteOffset": 4608,
      "componentType": 5125,
      "count": 10110,
      "type": "SCALAR"
    }
  ],
  "asset": {
    "extras": {
      "author": "AmbarHdz (https://sketchfab.com/AmbarHdz)",
      "license": "CC-BY-4.0 (http://creativecommons.org/licenses/by/4.0/)",
      "source": "https://sketchfab.com/3d-models/cuchillo-moonstone-ad7b2f67208d488c8aff5a1f53b6a613",
      "title": "Cuchillo Moonstone"
    },
    "generator": "Sketchfab-12.67.0",
    "version": "2.0"
  },
  "bufferViews": [
    {
      "buffer": 0,
      "byteLength": 45048,
      "name": "floatBufferViews",
      "target": 34963
    },
    {
      "buffer": 0,
      "byteLength": 19072,
      "byteOffset": 45048,
      "byteStride": 8,
      "name": "floatBufferViews",
      "target": 34962
    },
    {
      "buffer": 0,
      "byteLength": 57216,
      "byteOffset": 64120,
      "byteStride": 12,
      "name": "floatBufferViews",
      "target": 34962
    },
    {
      "buffer": 0,
      "byteLength": 4448,
      "byteOffset": 121336,
      "byteStride": 16,
      "name": "floatBufferViews",
      "target": 34962
    }
  ],
  "buffers": [
    {
      "byteLength": 125784,
      "uri": "scene.bin"
    }
  ],
  "extensionsUsed": [
    "KHR_materials_clearcoat"
  ],
  "images": [
    {
      "uri": "textures/MangoSuperLow_baseColor.png"
    },
    {
      "uri": "textures/MangoSuperLow_metallicRoughness.png"
    },
    {
      "uri": "textures/MangoSuperLow_normal.png"
    },
    {
      "uri": "textures/NavajaColor_baseColor.png"
    },
    {
      "uri": "textures/NavajaColor_emissive.png"
    }
  ],
  "materials": [
    {
      "doubleSided": true,
      "name": "MangoSuperLow",
      "normalTexture": {
        "index": 2
      },
      "pbrMetallicRoughness": {
        "baseColorTexture": {
          "index": 0
        },
        "metallicFactor": 0.3421997458487618,
        "metallicRoughnessTexture": {
          "index": 1
        }
      }
    },
    {
      "alphaMode": "BLEND",
      "emissiveFactor": [
        1.0,
        1.0,
        1.0
      ],
      "emissiveTexture": {
        "index": 4
      },
      "extensions": {
        "KHR_materials_clearcoat": {
          "clearcoatFactor": 1.0,
          "clearcoatRoughnessFactor": 0.1658747241121427
        }
      },
      "name": "NavajaColor",
      "pbrMetallicRoughness": {
        "baseColorTexture": {
          "index": 3
        },
        "metallicFactor": 0.5732463260553661,
        "roughnessFactor": 0.73133082830199
      }
    }
  ],
  "meshes": [
    {
      "name": "Object_0",
      "primitives": [
        {
          "attributes": {
            "NORMAL": 1,
            "POSITION": 0,
            "TANGENT": 2,
            "TEXCOORD_0": 3
          },
          "indices": 4,
          "material": 0,
          "mode": 4
        }
      ]
    },
    {
      "name": "Object_1",
      "primitives": [
        {
          "attributes": {
            "NORMAL": 6,
            "POSITION": 5,
            "TEXCOORD_0": 7
          },
          "indices": 8,
          "material": 1,
          "mode": 4
        }
      ]
    }
  ],
  "nodes": [
    {
      "children": [
        1
      ],
      "matrix": [
        1.0,
        0.0,
        0.0,
        0.0,
        0.0,
        2.220446049250313e-16,
        -1.0,
        0.0,
        0.0,
        1.0,
        2.220446049250313e-16,
        0.0,
        0.0,
        0.0,
        0.0,
        1.0
      ],
      "name": "Sketchfab_model"
    },
    {
      "children": [
        2,
        3
      ],
      "name": "8e61c2e6e3e54ae4a398b65eaf9bf6b9.obj.cleaner.materialmerger.gles"
    },
    {
      "mesh": 0,
      "name": "Object_2"
    },
    {
      "mesh": 1,
      "name": "Object_3"
    }
  ],
  "samplers": [
    {
      "magFilter": 9729,
      "minFilter": 9987,
      "wrapS": 10497,
      "wrapT": 10497
    },
    {
      "magFilter": 9728,
      "minFilter": 9728,
      "wrapS": 10497,
      "wrapT": 33071
    }
  ],
  "scene": 0,
  "scenes": [
    {
      "name": "Sketchfab_Scene",
      "nodes": [
        0
      ]
    }
  ],
  "textures": [
    {
      "sampler": 0,
      "source": 0
    },
    {
      "sampler": 0,
      "source": 1
    },
    {
      "sampler": 0,
      "source": 2
    },
    {
      "sampler": 1,
      "source": 3
    },
    {
      "sampler": 0,
      "source": 4
    }
  ]
}
