{
  "accessors": [
    {
      "bufferView": 2,
      "componentType": 5126,
      "count": 560,
      "max": [
        3.2121527194976807,
        3.2121524810791016,
        1.0
      ],
      "min": [
        -3.2121522426605225,
        -3.2121524810791016,
        -1.2621726989746094
      ],
      "type": "VEC3"
    },
    {
      "bufferView": 2,
      "byteOffset": 6720,
      "componentType": 5126,
      "count": 560,
      "max": [
        0.9266983866691589,
        0.9266983866691589,
        1.0
      ],
      "min": [
        -0.9266983866691589,
        -0.9266983866691589,
        -1.0
      ],
      "type": "VEC3"
    },
    {
      "bufferView": 1,
      "componentType": 5126,
      "count": 560,
      "max": [
        1.0,
        1.0
      ],
      "min": [
        0.0,
        0.01000000536441803
      ],
      "type": "VEC2"
    },
    {
      "bufferView": 0,
      "componentType": 5125,
      "count": 948,
      "type": "SCALAR"
    },
    {
      "bufferView": 2,
      "byteOffset": 13440,
      "componentType": 5126,
      "count": 448,
      "max": [
        1.2068251371383667,
        1.2068246603012085,
        3.4806199073791504
      ],
      "min": [
        -1.206824541091919,
        -1.2068246603012085,
        -1.0
      ],
      "type": "VEC3"
    },
    {
      "bufferView": 2,
      "byteOffset": 18816,
      "componentType": 5126,
      "count": 448,
      "max": [
        0.9951847195625305,
        0.9951847195625305,
        1.0
      ],
      "min": [
        -0.9951847195625305,
        -0.9951847195625305,
        -1.0
      ],
      "type": "VEC3"
    },
    {
      "bufferView": 1,
      "byteOffset": 4480,
      "componentType": 5126,
      "count": 448,
      "max": [
        1.0,
        1.0
      ],
      "min": [
        0.0,
        0.01000000536441803
      ],
      "type": "VEC2"
    },
    {
      "bufferView": 0,
      "byteOffset": 3792,
      "componentType": 5125,
      "count": 756,
      "type": "SCALAR"
    },
    {
      "bufferView": 2,
      "byteOffset": 24192,
      "componentType": 5126,
      "count": 960,
      "max": [
        1.0,
        1.0,
        4.752407550811768
      ],
      "min": [
        -1.0,
        -1.0,
        -1.0
      ],
      "type": "VEC3"
    },
    {
      "bufferView": 2,
      "byteOffset": 35712,
      "componentType": 5126,
      "count": 960,
      "max": [
        0.9951848387718201,
        0.9951847791671753,
        1.0
      ],
      "min": [
        -0.9951848387718201,
        -0.9951847791671753,
        -1.0
      ],
      "type": "VEC3"
    },
    {
      "bufferView": 1,
      "byteOffset": 8064,
      "componentType": 5126,
      "count": 960,
      "max": [
        1.0,
        1.0
      ],
      "min": [
        0.0,
        0.01000000536441803
      ],
      "type": "VEC2"
    },
    {
      "bufferView": 0,
      "byteOffset": 6816,
      "componentType": 5125,
      "count": 1524,
      "type": "SCALAR"
    },
    {
      "bufferView": 2,
      "byteOffset": 47232,
      "componentType": 5126,
      "count": 576,
      "max": [
        2.050415277481079,
        2.050415515899658,
        13.43734359741211
      ],
      "min": [
        -2.0504157543182373,
        -2.050415515899658,
        -1.0
      ],
      "type": "VEC3"
    },
    {
      "bufferView": 2,
      "byteOffset": 54144,
      "componentType": 5126,
      "count": 576,
      "max": [
        0.9951847195625305,
        0.9951847791671753,
        1.0
      ],
      "min": [
        -0.9951846599578857,
        -0.9951847791671753,
        -1.0
      ],
      "type": "VEC3"
    },
    {
      "bufferView": 1,
      "byteOffset": 15744,
      "componentType": 5126,
      "count": 576,
      "max": [
        1.0,
        1.0
      ],
      "min": [
        0.0,
        0.01000000536441803
      ],
      "type": "VEC2"
    },
    {
      "bufferView": 0,
      "byteOffset": 12912,
      "componentType": 5125,
      "count": 948,
      "type": "SCALAR"
    },
    {
      "bufferView": 2,
      "byteOffset": 61056,
      "componentType": 5126,
      "count": 966,
      "max": [
        1.0,
        1.0,
        1.0
      ],
      "min": [
        -1.0,
        -1.0,
        -5.678881645202637
      ],
      "type": "VEC3"
    },
    {
      "bufferView": 2,
      "byteOffset": 72648,
      "componentType": 5126,
      "count": 966,
      "max": [
        1.0,
        1.0,
        1.0
      ],
      "min": [
        -1.0,
        -1.0,
        -1.0
      ],
      "type": "VEC3"
    },
    {
      "bufferView": 1,
      "byteOffset": 20352,
      "componentType": 5126,
      "count": 966,
      "max": [
        0.875,
        1.0
      ],
      "min": [
        0.125,
        0.008800983428955078
      ],
      "type": "VEC2"
    },
    {
      "bufferView": 0,
      "byteOffset": 16704,
      "componentType": 5125,
      "count": 1500,
      "type": "SCALAR"
    },
    {
      "bufferView": 2,
      "byteOffset": 84240,
      "componentType": 5126,
      "count": 436,
      "max": [
        1.0,
        1.0,
        2.4751574993133545
      ],
      "min": [
        -1.0,
        -1.0,
        -1.0
      ],
      "type": "VEC3"
    },
    {
      "bufferView": 2,
      "byteOffset": 89472,
      "componentType": 5126,
      "count": 436,
      "max": [
        0.9951847195625305,
        0.9951847195625305,
        1.0
      ],
      "min": [
        -0.9951847195625305,
        -0.9951847195625305,
        -1.0
      ],
      "type": "VEC3"
    },
    {
      "bufferView": 1,
      "byteOffset": 28080,
      "componentType": 5126,
      "count": 436,
      "max": [
        1.0,
        1.0
      ],
      "min": [
        0.0,
        0.01000000536441803
      ],
      "type": "VEC2"
    },
    {
      "bufferView": 0,
      "byteOffset": 22704,
      "componentType": 5125,
      "count": 756,
      "type": "SCALAR"
    },
    {
      "bufferView": 2,
      "byteOffset": 94704,
      "componentType": 5126,
      "count": 340,
      "max": [
        1.0,
        1.0000003576278687,
        1.0
      ],
      "min": [
        -1.0,
        -1.0000003576278687,
        -8.956416130065918
      ],
      "type": "VEC3"
    },
    {
      "bufferView": 2,
      "byteOffset": 98784,
      "componentType": 5126,
      "count": 340,
      "max": [
        1.0,
        1.0,
        1.0
      ],
      "min": [
        -1.0,
        -1.0,
        -1.0
      ],
      "type": "VEC3"
    },
    {
      "bufferView": 1,
      "byteOffset": 31568,
      "componentType": 5126,
      "count": 340,
      "max": [
        0.8666849136352539,
        0.9916849136352539
      ],
      "min": [
        0.125,
        0.0
      ],
      "type": "VEC2"
    },
    {
      "bufferView": 0,
      "byteOffset": 25728,
      "componentType": 5125,
      "count": 516,
      "type": "SCALAR"
    },
    {
      "bufferView": 2,
      "byteOffset": 102864,
      "componentType": 5126,
      "count": 390,
      "max": [
        1.0,
        1.0,
        4.367066860198975
      ],
      "min": [
        -1.0,
        -1.0,
        -1.0
      ],
      "type": "VEC3"
    },
    {
      "bufferView": 2,
      "byteOffset": 107544,
      "componentType": 5126,
      "count": 390,
      "max": [
        1.0,
        1.0,
        1.0
      ],
      "min": [
        -1.0,
        -1.0,
        -1.0
      ],
      "type": "VEC3"
    },
    {
      "bufferView": 1,
      "byteOffset": 34288,
      "componentType": 5126,
      "count": 390,
      "max": [
        0.875,
        1.0
      ],
      "min": [
        0.125,
        0.0
      ],
      "type": "VEC2"
    },
    {
      "bufferView": 0,
      "byteOffset": 27792,
      "componentType": 5125,
      "count": 768,
      "type": "SCALAR"
    }
  ],
  "asset": {
    "extras": {
      "author": "Alex-YT (https://sketchfab.com/Alex-YT)",
      "license": "CC-BY-4.0 (http://creativecommons.org/licenses/by/4.0/)",
      "source": "https://sketchfab.com/3d-models/bazooka-8c3477b2620a4b088504bdc08c99f5cc",
      "title": "Bazooka"
    },
    "generator": "Sketchfab-16.56.0",
    "version": "2.0"
  },
  "bufferViews": [
    {
      "buffer": 0,
      "byteLength": 30864,
      "name": "floatBufferViews",
      "target": 34963
    },
    {
      "buffer": 0,
      "byteLength": 37408,
      "byteOffset": 30864,
      "byteStride": 8,
      "name": "floatBufferViews",
      "target": 34962
    },
    {
      "buffer": 0,
      "byteLength": 112224,
      "byteOffset": 68272,
      "byteStride": 12,
      "name": "floatBufferViews",
      "target": 34962
    }
  ],
  "buffers": [
    {
      "byteLength": 180496,
      "uri": "scene.bin"
    }
  ],
  "materials": [
    {
      "doubleSided": true,
      "name": "Material.001",
      "pbrMetallicRoughness": {
        "baseColorFactor": [
          0.0440404,
          0.0440404,
          0.0440404,
          1.0
        ],
        "metallicFactor": 0.0
      }
    },
    {
      "doubleSided": true,
      "name": "Material.003",
      "pbrMetallicRoughness": {
        "baseColorFactor": [
          0.27176,
          0.159163,
          0.0771616,
          1.0
        ],
        "metallicFactor": 0.0
      }
    },
    {
      "doubleSided": true,
      "name": "Material",
      "pbrMetallicRoughness": {
        "baseColorFactor": [
          0.0236943,
          0.17625,
          0.0268728,
          1.0
        ],
        "metallicFactor": 0.0
      }
    },
    {
      "doubleSided": true,
      "name": "Material.005",
      "pbrMetallicRoughness": {
        "baseColorFactor": [
          0.0887493,
          0.0887493,
          0.0887493,
          1.0
        ],
        "metallicFactor": 0.0
      }
    }
  ],
  "meshes": [
    {
      "name": "Cylinder_Material.001_0",
      "primitives": [
        {
          "attributes": {
            "NORMAL": 1,
            "POSITION": 0,
            "TEXCOORD_0": 2
          },
          "indices": 3,
          "material": 0,
          "mode": 4
        }
      ]
    },
    {
      "name": "Cylinder.001_Material.003_0",
      "primitives": [
        {
          "attributes": {
            "NORMAL": 5,
            "POSITION": 4,
            "TEXCOORD_0": 6
          },
          "indices": 7,
          "material": 1,
          "mode": 4
        }
      ]
    },
    {
      "name": "Cylinder.002_Material.001_0",
      "primitives": [
        {
          "attributes": {
            "NORMAL": 9,
            "POSITION": 8,
            "TEXCOORD_0": 10
          },
          "indices": 11,
          "material": 0,
          "mode": 4
        }
      ]
    },
    {
      "name": "Cylinder.003_Material_0",
      "primitives": [
        {
          "attributes": {
            "NORMAL": 13,
            "POSITION": 12,
            "TEXCOORD_0": 14
          },
          "indices": 15,
          "material": 2,
          "mode": 4
        }
      ]
    },
    {
      "name": "Cube_Material.001_0",
      "primitives": [
        {
          "attributes": {
            "NORMAL": 17,
            "POSITION": 16,
            "TEXCOORD_0": 18
          },
          "indices": 19,
          "material": 0,
          "mode": 4
        }
      ]
    },
    {
      "name": "Cylinder.004_Material.005_0",
      "primitives": [
        {
          "attributes": {
            "NORMAL": 21,
            "POSITION": 20,
            "TEXCOORD_0": 22
          },
          "indices": 23,
          "material": 3,
          "mode": 4
        }
      ]
    },
    {
      "name": "Cube.001_Material.001_0",
      "primitives": [
        {
          "attributes": {
            "NORMAL": 25,
            "POSITION": 24,
            "TEXCOORD_0": 26
          },
          "indices": 27,
          "material": 0,
          "mode": 4
        }
      ]
    },
    {
      "name": "Cube.002_Material.001_0",
      "primitives": [
        {
          "attributes": {
            "NORMAL": 29,
            "POSITION": 28,
            "TEXCOORD_0": 30
          },
          "indices": 31,
          "material": 0,
          "mode": 4
        }
      ]
    }
  ],
  "nodes": [
    {
      "children": [
        1
      ],
      "matrix": [
        1.0,
        0.0,
        0.0,
        0.0,
        0.0,
        2.220446049250313e-16,
        -1.0,
        0.0,
        0.0,
        1.0,
        2.220446049250313e-16,
        0.0,
        0.0,
        0.0,
        0.0,
        1.0
      ],
      "name": "Sketchfab_model"
    },
    {
      "children": [
        2
      ],
      "matrix": [
        0.009999999776482582,
        0.0,
        0.0,
        0.0,
        0.0,
        0.0,
        0.009999999776482582,
        0.0,
        0.0,
        -0.009999999776482582,
        0.0,
        0.0,
        0.0,
        0.0,
        0.0,
        1.0
      ],
      "name": "fa1536e9573f47eb93e222d3f22c6959.fbx"
    },
    {
      "children": [
        3,
        5,
        7,
        9,
        11,
        13,
        15,
        17
      ],
      "name": "RootNode"
    },
    {
      "children": [
        4
      ],
      "matrix": [
        -0.0010276724103446787,
        -13.441204985432908,
        -8.011276883435605e-07,
        0.0,
        -2.189788999628309e-06,
        8.012951162106371e-07,
        -13.441205024719036,
        0.0,
        51.067687839018596,
        -0.0039044753727495067,
        -8.319982433360154e-06,
        0.0,
        -302.42218017578125,
        -5.512904167175293,
        0.0,
        1.0
      ],
      "name": "Cylinder"
    },
    {
      "mesh": 0,
      "name": "Cylinder_Material.001_0"
    },
    {
      "children": [
        6
      ],
      "matrix": [
        -7.254687751984386e-07,
        -16.59679031372069,
        -1.84261387411685e-15,
        0.0,
        -7.254687761197456e-07,
        3.31670497341033e-14,
        -16.59679031372069,
        0.0,
        42.04033660888664,
        -1.8376415542285576e-06,
        -1.8376415518948501e-06,
        0.0,
        -221.64938354492188,
        -5.521656036376953,
        8.888490015124262e-07,
        1.0
      ],
      "name": "Cylinder.001"
    },
    {
      "mesh": 1,
      "name": "Cylinder.001_Material.003_0"
    },
    {
      "children": [
        8
      ],
      "matrix": [
        -8.263616080898142e-07,
        -18.904949188232404,
        -2.0988709868144297e-15,
        0.0,
        -8.263616091392497e-07,
        3.7779677762659735e-14,
        -18.904949188232404,
        0.0,
        50.641517639160064,
        -2.2136111337235926e-06,
        -2.2136111309124237e-06,
        0.0,
        -34.455657958984375,
        -5.250385761260986,
        0.0,
        1.0
      ],
      "name": "Cylinder.002"
    },
    {
      "mesh": 2,
      "name": "Cylinder.002_Material.001_0"
    },
    {
      "children": [
        10
      ],
      "matrix": [
        -5.637767426479702e-07,
        -12.897707939147939,
        -1.431933231893273e-15,
        0.0,
        -5.637767433639368e-07,
        2.5774798174078915e-14,
        -12.897707939147939,
        0.0,
        12.897707939147924,
        -5.637767433639368e-07,
        -5.637767426479702e-07,
        0.0,
        217.36834716796875,
        -5.469151973724365,
        0.0,
        1.0
      ],
      "name": "Cylinder.003"
    },
    {
      "mesh": 3,
      "name": "Cylinder.003_Material_0"
    },
    {
      "children": [
        12
      ],
      "matrix": [
        32.02265930175781,
        0.0,
        0.0,
        0.0,
        0.0,
        -1.0274726198491702e-06,
        -6.3065819740294575,
        0.0,
        0.0,
        13.810608863830383,
        -2.250033778910125e-06,
        0.0,
        57.718894958496094,
        -12.941596984863281,
        9.552775281918002e-07,
        1.0
      ],
      "name": "Cube"
    },
    {
      "mesh": 4,
      "name": "Cube_Material.001_0"
    },
    {
      "children": [
        14
      ],
      "matrix": [
        -2.0068710329197052e-07,
        -4.591185569763179,
        -5.097239929877854e-16,
        0.0,
        -2.006871035468325e-07,
        9.175031873780138e-15,
        -4.591185569763179,
        0.0,
        4.743360519409171,
        -2.0733888213708786e-07,
        -2.0733888187377846e-07,
        0.0,
        389.364013671875,
        -5.520662784576416,
        7.627222657902166e-07,
        1.0
      ],
      "name": "Cylinder.004"
    },
    {
      "mesh": 5,
      "name": "Cylinder.004_Material.005_0"
    },
    {
      "children": [
        16
      ],
      "matrix": [
        17.573944091796875,
        0.0,
        0.0,
        0.0,
        -0.0,
        -1.0594875146872228e-06,
        -6.503087997436437,
        0.0,
        0.0,
        6.503087997436437,
        -1.0594875146872228e-06,
        0.0,
        -15.604506492614746,
        -21.901065826416016,
        2.942601668110001e-06,
        1.0
      ],
      "name": "Cube.001"
    },
    {
      "mesh": 6,
      "name": "Cube.001_Material.001_0"
    },
    {
      "children": [
        18
      ],
      "matrix": [
        18.65020179748535,
        0.0,
        0.0,
        0.0,
        0.0,
        -1.362220518135089e-06,
        -8.361249923705945,
        0.0,
        0.0,
        8.361249923705945,
        -1.362220518135089e-06,
        0.0,
        132.45068359375,
        7.260512351989746,
        0.0,
        1.0
      ],
      "name": "Cube.002"
    },
    {
      "mesh": 7,
      "name": "Cube.002_Material.001_0"
    }
  ],
  "scene": 0,
  "scenes": [
    {
      "name": "Sketchfab_Scene",
      "nodes": [
        0
      ]
    }
  ]
}
