{
  "accessors": [
    {
      "bufferView": 2,
      "componentType": 5126,
      "count": 9634,
      "max": [
        4.856132984161377,
        10.0,
        4.847525596618652
      ],
      "min": [
        -4.2464704513549805,
        0.059183161705732346,
        -4.984142780303955
      ],
      "type": "VEC3"
    },
    {
      "bufferView": 2,
      "byteOffset": 115608,
      "componentType": 5126,
      "count": 9634,
      "max": [
        1.0,
        0.9999954700469971,
        1.0
      ],
      "min": [
        -1.0,
        -1.0,
        -1.0
      ],
      "type": "VEC3"
    },
    {
      "bufferView": 1,
      "componentType": 5126,
      "count": 9634,
      "max": [
        1.9997365474700928,
        1.9981632232666016
      ],
      "min": [
        1.0002522468566895,
        1.0002915859222412
      ],
      "type": "VEC2"
    },
    {
      "bufferView": 0,
      "componentType": 5125,
      "count": 31092,
      "type": "SCALAR"
    },
    {
      "bufferView": 2,
      "byteOffset": 231216,
      "componentType": 5126,
      "count": 106,
      "max": [
        3.214186191558838,
        5.795676231384277,
        4.411752700805664
      ],
      "min": [
        -2.6009204387664795,
        3.7367923259735107,
        2.802050828933716
      ],
      "type": "VEC3"
    },
    {
      "bufferView": 2,
      "byteOffset": 232488,
      "componentType": 5126,
      "count": 106,
      "max": [
        0.8750025629997253,
        0.9996518492698669,
        0.7466774582862854
      ],
      "min": [
        -0.8739079236984253,
        -0.9993852972984314,
        -0.9996778964996338
      ],
      "type": "VEC3"
    },
    {
      "bufferView": 1,
      "byteOffset": 77072,
      "componentType": 5126,
      "count": 106,
      "max": [
        1.6131324768066406,
        1.998862862586975
      ],
      "min": [
        1.2378309965133667,
        1.916752815246582
      ],
      "type": "VEC2"
    },
    {
      "bufferView": 0,
      "byteOffset": 124368,
      "componentType": 5125,
      "count": 372,
      "type": "SCALAR"
    },
    {
      "bufferView": 2,
      "byteOffset": 233760,
      "componentType": 5126,
      "count": 5649,
      "max": [
        2.090959072113037,
        8.105009078979492,
        8.247151374816895
      ],
      "min": [
        -1.4519941806793213,
        4.103724002838135,
        3.8315815925598145
      ],
      "type": "VEC3"
    },
    {
      "bufferView": 2,
      "byteOffset": 301548,
      "componentType": 5126,
      "count": 5649,
      "max": [
        0.9999958276748657,
        0.9998933672904968,
        0.9999575614929199
      ],
      "min": [
        -0.9999889731407166,
        -0.9998338222503662,
        -0.9999167919158936
      ],
      "type": "VEC3"
    },
    {
      "bufferView": 1,
      "byteOffset": 77920,
      "componentType": 5126,
      "count": 5649,
      "max": [
        1.998311996459961,
        1.9993113279342651
      ],
      "min": [
        1.0012651681900024,
        1.0016753673553467
      ],
      "type": "VEC2"
    },
    {
      "bufferView": 0,
      "byteOffset": 125856,
      "componentType": 5125,
      "count": 16326,
      "type": "SCALAR"
    }
  ],
  "asset": {
    "extras": {
      "author": "ErhanMatur (https://sketchfab.com/erhanmatur)",
      "license": "CC-BY-4.0 (http://creativecommons.org/licenses/by/4.0/)",
      "source": "https://sketchfab.com/3d-models/tactical-helmet-d8a31c16ee4847d9ac3719ec8a8767e4",
      "title": "Tactical Helmet"
    },
    "generator": "Sketchfab-12.65.0",
    "version": "2.0"
  },
  "bufferViews": [
    {
      "buffer": 0,
      "byteLength": 191160,
      "name": "floatBufferViews",
      "target": 34963
    },
    {
      "buffer": 0,
      "byteLength": 123112,
      "byteOffset": 191160,
      "byteStride": 8,
      "name": "floatBufferViews",
      "target": 34962
    },
    {
      "buffer": 0,
      "byteLength": 369336,
      "byteOffset": 314272,
      "byteStride": 12,
      "name": "floatBufferViews",
      "target": 34962
    }
  ],
  "buffers": [
    {
      "byteLength": 683608,
      "uri": "scene.bin"
    }
  ],
  "images": [
    {
      "uri": "textures/Helmet_baseColor.jpeg"
    },
    {
      "uri": "textures/Glass_baseColor.jpeg"
    },
    {
      "uri": "textures/Goggles_baseColor.jpeg"
    }
  ],
  "materials": [
    {
      "doubleSided": true,
      "name": "Helmet",
      "pbrMetallicRoughness": {
        "baseColorTexture": {
          "index": 0
        },
        "metallicFactor": 0.0,
        "roughnessFactor": 0.9577051494623774
      }
    },
    {
      "doubleSided": true,
      "name": "Glass",
      "pbrMetallicRoughness": {
        "baseColorTexture": {
          "index": 1
        },
        "metallicFactor": 0.0,
        "roughnessFactor": 0.9577051494623774
      }
    },
    {
      "doubleSided": true,
      "name": "Goggles",
      "pbrMetallicRoughness": {
        "baseColorTexture": {
          "index": 2
        },
        "metallicFactor": 0.0,
        "roughnessFactor": 0.9577051494623774
      }
    }
  ],
  "meshes": [
    {
      "name": "desirefx.me_001_Helmet_0",
      "primitives": [
        {
          "attributes": {
            "NORMAL": 1,
            "POSITION": 0,
            "TEXCOORD_0": 2
          },
          "indices": 3,
          "material": 0,
          "mode": 4
        }
      ]
    },
    {
      "name": "desirefx.me_002_Glass_0",
      "primitives": [
        {
          "attributes": {
            "NORMAL": 5,
            "POSITION": 4,
            "TEXCOORD_0": 6
          },
          "indices": 7,
          "material": 1,
          "mode": 4
        }
      ]
    },
    {
      "name": "desirefx.me_003_Goggles_0",
      "primitives": [
        {
          "attributes": {
            "NORMAL": 9,
            "POSITION": 8,
            "TEXCOORD_0": 10
          },
          "indices": 11,
          "material": 2,
          "mode": 4
        }
      ]
    }
  ],
  "nodes": [
    {
      "children": [
        1
      ],
      "matrix": [
        0.6308733224868774,
        0.09202814102172835,
        0.7704087495803833,
        0.0,
        0.7736920118331909,
        1.4761789772749467e-16,
        -0.633561909198761,
        0.0,
        -0.058305524289608,
        0.9957563877105713,
        -0.07120143622159936,
        0.0,
        1.6680628061294556,
        -0.006709755398333233,
        0.72111576795578,
        1.0
      ],
      "name": "Sketchfab_model"
    },
    {
      "children": [
        2
      ],
      "matrix": [
        1.0,
        0.0,
        0.0,
        0.0,
        0.0,
        0.0,
        1.0,
        0.0,
        0.0,
        -1.0,
        0.0,
        0.0,
        0.0,
        0.0,
        0.0,
        1.0
      ],
      "name": "Tactical Helmet.fbx"
    },
    {
      "children": [
        3,
        5,
        7
      ],
      "name": "RootNode"
    },
    {
      "children": [
        4
      ],
      "matrix": [
        1.0,
        0.0,
        0.0,
        0.0,
        0.0,
        0.999999999999999,
        4.371138828673792e-08,
        0.0,
        0.0,
        -4.371138828673792e-08,
        0.999999999999999,
        0.0,
        0.0,
        0.0,
        0.0,
        1.0
      ],
      "name": "desirefx.me_001"
    },
    {
      "mesh": 0,
      "name": "desirefx.me_001_Helmet_0"
    },
    {
      "children": [
        6
      ],
      "matrix": [
        1.0,
        0.0,
        0.0,
        0.0,
        0.0,
        0.999999999999999,
        4.371138828673792e-08,
        0.0,
        0.0,
        -4.371138828673792e-08,
        0.999999999999999,
        0.0,
        0.0,
        0.0,
        0.0,
        1.0
      ],
      "name": "desirefx.me_002"
    },
    {
      "mesh": 1,
      "name": "desirefx.me_002_Glass_0"
    },
    {
      "children": [
        8
      ],
      "matrix": [
        1.0,
        0.0,
        0.0,
        0.0,
        0.0,
        0.999999999999999,
        4.371138828673792e-08,
        0.0,
        0.0,
        -4.371138828673792e-08,
        0.999999999999999,
        0.0,
        0.0,
        0.0,
        0.0,
        1.0
      ],
      "name": "desirefx.me_003"
    },
    {
      "mesh": 2,
      "name": "desirefx.me_003_Goggles_0"
    }
  ],
  "samplers": [
    {
      "magFilter": 9729,
      "minFilter": 9987,
      "wrapS": 10497,
      "wrapT": 10497
    }
  ],
  "scene": 0,
  "scenes": [
    {
      "name": "Sketchfab_Scene",
      "nodes": [
        0
      ]
    }
  ],
  "textures": [
    {
      "sampler": 0,
      "source": 0
    },
    {
      "sampler": 0,
      "source": 1
    },
    {
      "sampler": 0,
      "source": 2
    }
  ]
}
