{
  "accessors": [
    {
      "bufferView": 2,
      "componentType": 5126,
      "count": 667,
      "max": [
        212.76516723632813,
        17.439403533935547,
        5.489621162414551
      ],
      "min": [
        114.32196044921875,
        -17.439403533935547,
        -5.489621162414551
      ],
      "type": "VEC3"
    },
    {
      "bufferView": 2,
      "byteOffset": 8004,
      "componentType": 5126,
      "count": 667,
      "max": [
        0.5281321406364441,
        0.9997445940971375,
        1.0
      ],
      "min": [
        -0.13139060139656067,
        -0.9997445940971375,
        -1.0
      ],
      "type": "VEC3"
    },
    {
      "bufferView": 3,
      "componentType": 5126,
      "count": 667,
      "max": [
        0.8343034982681274,
        0.9998509883880615,
        1.0,
        1.0
      ],
      "min": [
        -0.6283970475196838,
        -1.0,
        -1.0,
        -1.0
      ],
      "type": "VEC4"
    },
    {
      "bufferView": 1,
      "componentType": 5126,
      "count": 667,
      "max": [
        0.9580477476119995,
        0.9581894874572754
      ],
      "min": [
        0.6909987330436707,
        0.00044183433055877686
      ],
      "type": "VEC2"
    },
    {
      "bufferView": 0,
      "componentType": 5125,
      "count": 2340,
      "type": "SCALAR"
    },
    {
      "bufferView": 2,
      "byteOffset": 16008,
      "componentType": 5126,
      "count": 2473,
      "max": [
        218.10157775878906,
        23.3515625,
        5.529712677001953
      ],
      "min": [
        101.4637451171875,
        -23.3515625,
        -5.529712677001953
      ],
      "type": "VEC3"
    },
    {
      "bufferView": 2,
      "byteOffset": 45684,
      "componentType": 5126,
      "count": 2473,
      "max": [
        1.0,
        0.9999931454658508,
        1.0
      ],
      "min": [
        -1.0,
        -0.9999931454658508,
        -1.0
      ],
      "type": "VEC3"
    },
    {
      "bufferView": 3,
      "byteOffset": 10672,
      "componentType": 5126,
      "count": 2473,
      "max": [
        1.0,
        0.9987354874610901,
        1.0,
        1.0
      ],
      "min": [
        -0.9999998211860657,
        -1.0,
        -1.0,
        -1.0
      ],
      "type": "VEC4"
    },
    {
      "bufferView": 1,
      "byteOffset": 5336,
      "componentType": 5126,
      "count": 2473,
      "max": [
        0.9837570786476135,
        0.9861569404602051
      ],
      "min": [
        0.36187344789505005,
        0.5082149505615234
      ],
      "type": "VEC2"
    },
    {
      "bufferView": 0,
      "byteOffset": 9360,
      "componentType": 5125,
      "count": 4746,
      "type": "SCALAR"
    },
    {
      "bufferView": 2,
      "byteOffset": 75360,
      "componentType": 5126,
      "count": 4616,
      "max": [
        119.16914367675781,
        22.537036895751953,
        1.8200089931488037
      ],
      "min": [
        -224.04933166503906,
        -19.794736862182617,
        -1.8200089931488037
      ],
      "type": "VEC3"
    },
    {
      "bufferView": 2,
      "byteOffset": 130752,
      "componentType": 5126,
      "count": 4616,
      "max": [
        1.0,
        1.0,
        1.0
      ],
      "min": [
        -1.0,
        -1.0,
        -1.0
      ],
      "type": "VEC3"
    },
    {
      "bufferView": 3,
      "byteOffset": 50240,
      "componentType": 5126,
      "count": 4616,
      "max": [
        1.0,
        1.0,
        1.0,
        1.0
      ],
      "min": [
        -1.0,
        -0.9823784232139587,
        -1.0,
        -1.0
      ],
      "type": "VEC4"
    },
    {
      "bufferView": 1,
      "byteOffset": 25120,
      "componentType": 5126,
      "count": 4616,
      "max": [
        0.99955815076828,
        0.9831187725067139
      ],
      "min": [
        0.0005044272402301431,
        0.0004418230091687292
      ],
      "type": "VEC2"
    },
    {
      "bufferView": 0,
      "byteOffset": 28344,
      "componentType": 5125,
      "count": 8988,
      "type": "SCALAR"
    }
  ],
  "asset": {
    "extras": {
      "author": "Medji (https://sketchfab.com/Medji)",
      "license": "CC-BY-4.0 (http://creativecommons.org/licenses/by/4.0/)",
      "source": "https://sketchfab.com/3d-models/machete-aliexpress-7a5ee1f408314d8199bb43c44c5bd163",
      "title": "Machete Aliexpress"
    },
    "generator": "Sketchfab-13.79.0",
    "version": "2.0"
  },
  "bufferViews": [
    {
      "buffer": 0,
      "byteLength": 64296,
      "name": "floatBufferViews",
      "target": 34963
    },
    {
      "buffer": 0,
      "byteLength": 62048,
      "byteOffset": 64296,
      "byteStride": 8,
      "name": "floatBufferViews",
      "target": 34962
    },
    {
      "buffer": 0,
      "byteLength": 186144,
      "byteOffset": 126344,
      "byteStride": 12,
      "name": "floatBufferViews",
      "target": 34962
    },
    {
      "buffer": 0,
      "byteLength": 124096,
      "byteOffset": 312488,
      "byteStride": 16,
      "name": "floatBufferViews",
      "target": 34962
    }
  ],
  "buffers": [
    {
      "byteLength": 436584,
      "uri": "scene.bin"
    }
  ],
  "images": [
    {
      "uri": "textures/Scene_-_Root_baseColor.png"
    },
    {
      "uri": "textures/Scene_-_Root_metallicRoughness.png"
    },
    {
      "uri": "textures/Scene_-_Root_normal.png"
    }
  ],
  "materials": [
    {
      "doubleSided": true,
      "name": "Scene_-_Root",
      "normalTexture": {
        "index": 2
      },
      "pbrMetallicRoughness": {
        "baseColorTexture": {
          "index": 0
        },
        "metallicRoughnessTexture": {
          "index": 1
        }
      }
    }
  ],
  "meshes": [
    {
      "name": "Grip_L__0",
      "primitives": [
        {
          "attributes": {
            "NORMAL": 1,
            "POSITION": 0,
            "TANGENT": 2,
            "TEXCOORD_0": 3
          },
          "indices": 4,
          "material": 0,
          "mode": 4
        }
      ]
    },
    {
      "name": "Metal_Grip_L__0",
      "primitives": [
        {
          "attributes": {
            "NORMAL": 6,
            "POSITION": 5,
            "TANGENT": 7,
            "TEXCOORD_0": 8
          },
          "indices": 9,
          "material": 0,
          "mode": 4
        }
      ]
    },
    {
      "name": "Blade_L__0",
      "primitives": [
        {
          "attributes": {
            "NORMAL": 11,
            "POSITION": 10,
            "TANGENT": 12,
            "TEXCOORD_0": 13
          },
          "indices": 14,
          "material": 0,
          "mode": 4
        }
      ]
    }
  ],
  "nodes": [
    {
      "children": [
        1
      ],
      "matrix": [
        0.929940402507782,
        0.36676540970802307,
        -0.02634425461292259,
        0.0,
        -8.673617379884035e-18,
        -0.07164403796195962,
        -0.9974302649497986,
        0.0,
        -0.3677103519439697,
        0.9275506734848022,
        -0.0666246861219404,
        0.0,
        0.0,
        0.0,
        0.0,
        1.0
      ],
      "name": "Sketchfab_model"
    },
    {
      "children": [
        2
      ],
      "matrix": [
        0.009999999776482582,
        0.0,
        0.0,
        0.0,
        0.0,
        0.0,
        0.009999999776482582,
        0.0,
        0.0,
        -0.009999999776482582,
        0.0,
        0.0,
        0.0,
        0.0,
        0.0,
        1.0
      ],
      "name": "1d0a73aaf40a4716ad8f9ac0ca4d755f.fbx"
    },
    {
      "children": [
        3,
        5,
        7
      ],
      "name": "RootNode"
    },
    {
      "children": [
        4
      ],
      "matrix": [
        1.0,
        0.0,
        0.0,
        0.0,
        0.0,
        1.0,
        0.0,
        0.0,
        0.0,
        0.0,
        1.0,
        0.0,
        0.26786935329437256,
        2.114823341369629,
        0.0,
        1.0
      ],
      "name": "Grip_L"
    },
    {
      "mesh": 0,
      "name": "Grip_L__0"
    },
    {
      "children": [
        6
      ],
      "matrix": [
        1.0,
        0.0,
        0.0,
        0.0,
        0.0,
        1.0,
        0.0,
        0.0,
        0.0,
        0.0,
        1.0,
        0.0,
        0.26786935329437256,
        2.114823341369629,
        0.0,
        1.0
      ],
      "name": "Metal_Grip_L"
    },
    {
      "mesh": 1,
      "name": "Metal_Grip_L__0"
    },
    {
      "children": [
        8
      ],
      "name": "Blade_L"
    },
    {
      "mesh": 2,
      "name": "Blade_L__0"
    }
  ],
  "samplers": [
    {
      "magFilter": 9729,
      "minFilter": 9987,
      "wrapS": 10497,
      "wrapT": 10497
    }
  ],
  "scene": 0,
  "scenes": [
    {
      "name": "Sketchfab_Scene",
      "nodes": [
        0
      ]
    }
  ],
  "textures": [
    {
      "sampler": 0,
      "source": 0
    },
    {
      "sampler": 0,
      "source": 1
    },
    {
      "sampler": 0,
      "source": 2
    }
  ]
}
