{
  "accessors": [
    {
      "bufferView": 2,
      "componentType": 5126,
      "count": 11721,
      "max": [
        3.187544584274292,
        0.7221959829330444,
        4.212452411651611
      ],
      "min": [
        -3.1546146869659424,
        -0.8474267721176147,
        -2.9482178688049316
      ],
      "type": "VEC3"
    },
    {
      "bufferView": 2,
      "byteOffset": 140652,
      "componentType": 5126,
      "count": 11721,
      "max": [
        1.0,
        1.0,
        1.0
      ],
      "min": [
        -1.0,
        -1.0,
        -1.0
      ],
      "type": "VEC3"
    },
    {
      "bufferView": 1,
      "componentType": 5126,
      "count": 11721,
      "max": [
        0.9818632006645203,
        0.979373574256897
      ],
      "min": [
        0.0,
        -0.0010135769844055176
      ],
      "type": "VEC2"
    },
    {
      "bufferView": 0,
      "componentType": 5125,
      "count": 19869,
      "type": "SCALAR"
    }
  ],
  "asset": {
    "extras": {
      "author": "JuanTactico (https://sketchfab.com/juantactio)",
      "license": "CC-BY-4.0 (http://creativecommons.org/licenses/by/4.0/)",
      "source": "https://sketchfab.com/3d-models/soldado-del-ejercito-mexicano-low-poly-7ef42de5636443399f3f06ff8b98d5a7",
      "title": "soldado del ejercito mexicano low poly"
    },
    "generator": "Sketchfab-15.44.0",
    "version": "2.0"
  },
  "bufferViews": [
    {
      "buffer": 0,
      "byteLength": 79476,
      "name": "floatBufferViews",
      "target": 34963
    },
    {
      "buffer": 0,
      "byteLength": 93768,
      "byteOffset": 79476,
      "byteStride": 8,
      "name": "floatBufferViews",
      "target": 34962
    },
    {
      "buffer": 0,
      "byteLength": 281304,
      "byteOffset": 173244,
      "byteStride": 12,
      "name": "floatBufferViews",
      "target": 34962
    }
  ],
  "buffers": [
    {
      "byteLength": 454548,
      "uri": "f.bin"
    }
  ],
  "images": [
    {
      "uri": "textures/soldadosedenaa_baseColor.png"
    }
  ],
  "materials": [
    {
      "doubleSided": true,
      "name": "soldadosedenaa",
      "pbrMetallicRoughness": {
        "baseColorTexture": {
          "index": 0
        },
        "metallicFactor": 0.0,
        "roughnessFactor": 0.8211145618000169
      }
    }
  ],
  "meshes": [
    {
      "name": "MARUCHERO.001_soldadosedenaa_0",
      "primitives": [
        {
          "attributes": {
            "NORMAL": 1,
            "POSITION": 0,
            "TEXCOORD_0": 2
          },
          "indices": 3,
          "material": 0,
          "mode": 4
        }
      ]
    }
  ],
  "nodes": [
    {
      "children": [
        1
      ],
      "matrix": [
        1.0,
        0.0,
        0.0,
        0.0,
        0.0,
        2.220446049250313e-16,
        -1.0,
        0.0,
        0.0,
        1.0,
        2.220446049250313e-16,
        0.0,
        0.0,
        0.0,
        0.0,
        1.0
      ],
      "name": "Sketchfab_model"
    },
    {
      "children": [
        2
      ],
      "matrix": [
        0.009999999776482582,
        0.0,
        0.0,
        0.0,
        0.0,
        0.0,
        0.009999999776482582,
        0.0,
        0.0,
        -0.009999999776482582,
        0.0,
        0.0,
        0.0,
        0.0,
        0.0,
        1.0
      ],
      "name": "5e29f9f231e9440fba0e8ff4b6955184.fbx"
    },
    {
      "children": [
        3
      ],
      "name": "RootNode"
    },
    {
      "children": [
        4
      ],
      "matrix": [
        100.0,
        0.0,
        0.0,
        0.0,
        0.0,
        -1.629206793918314e-05,
        -99.99999999999868,
        0.0,
        0.0,
        99.99999999999868,
        -1.629206793918314e-05,
        0.0,
        0.0,
        0.0,
        0.0,
        1.0
      ],
      "name": "MARUCHERO.001"
    },
    {
      "mesh": 0,
      "name": "MARUCHERO.001_soldadosedenaa_0"
    }
  ],
  "samplers": [
    {
      "magFilter": 9729,
      "minFilter": 9987,
      "wrapS": 10497,
      "wrapT": 10497
    }
  ],
  "scene": 0,
  "scenes": [
    {
      "name": "Sketchfab_Scene",
      "nodes": [
        0
      ]
    }
  ],
  "textures": [
    {
      "sampler": 0,
      "source": 0
    }
  ]
}
