{
  "accessors": [
    {
      "bufferView": 2,
      "componentType": 5126,
      "count": 9034,
      "max": [
        1.079287052154541,
        1.0792059898376465,
        2.5777719020843506
      ],
      "min": [
        -1.079287052154541,
        -1.0786010026931763,
        -0.004616999998688698
      ],
      "type": "VEC3"
    },
    {
      "bufferView": 2,
      "byteOffset": 108408,
      "componentType": 5126,
      "count": 9034,
      "max": [
        1.0,
        1.0,
        0.9958314895629883
      ],
      "min": [
        -1.0,
        -1.0,
        -1.0
      ],
      "type": "VEC3"
    },
    {
      "bufferView": 3,
      "componentType": 5126,
      "count": 9034,
      "max": [
        0.9997724294662476,
        0.9933763742446899,
        0.6204233765602112,
        1.0
      ],
      "min": [
        -0.9996408224105835,
        -0.9993629455566406,
        -0.9999986290931702,
        1.0
      ],
      "type": "VEC4"
    },
    {
      "bufferView": 1,
      "componentType": 5126,
      "count": 9034,
      "max": [
        0.6653509736061096,
        0.9995120167732239
      ],
      "min": [
        0.0004879999905824661,
        0.0004879999905824661
      ],
      "type": "VEC2"
    },
    {
      "bufferView": 0,
      "componentType": 5125,
      "count": 53376,
      "type": "SCALAR"
    },
    {
      "bufferView": 2,
      "byteOffset": 216816,
      "componentType": 5126,
      "count": 6517,
      "max": [
        0.8252620100975037,
        0.4227460026741028,
        3.5478010177612305
      ],
      "min": [
        -1.2226320505142212,
        -0.5516149997711182,
        1.400547981262207
      ],
      "type": "VEC3"
    },
    {
      "bufferView": 2,
      "byteOffset": 295020,
      "componentType": 5126,
      "count": 6517,
      "max": [
        0.9999825954437256,
        1.0,
        0.9999872446060181
      ],
      "min": [
        -1.0,
        -1.0,
        -0.9999966025352478
      ],
      "type": "VEC3"
    },
    {
      "bufferView": 3,
      "byteOffset": 144544,
      "componentType": 5126,
      "count": 6517,
      "max": [
        0.9999986290931702,
        0.9999946355819702,
        0.999996542930603,
        1.0
      ],
      "min": [
        -0.9999959468841553,
        -1.0,
        -1.0,
        -1.0
      ],
      "type": "VEC4"
    },
    {
      "bufferView": 1,
      "byteOffset": 72272,
      "componentType": 5126,
      "count": 6517,
      "max": [
        0.9746130108833313,
        0.9995120167732239
      ],
      "min": [
        0.0004879999905824661,
        0.0004879999905824661
      ],
      "type": "VEC2"
    },
    {
      "bufferView": 0,
      "byteOffset": 213504,
      "componentType": 5125,
      "count": 36126,
      "type": "SCALAR"
    }
  ],
  "asset": {
    "extras": {
      "author": "Moustache_Cat (https://sketchfab.com/moustachecat)",
      "license": "CC-BY-4.0 (http://creativecommons.org/licenses/by/4.0/)",
      "source": "https://sketchfab.com/3d-models/granada-bd09d30ec53a4efebab4714a7c3f6661",
      "title": "Granada"
    },
    "generator": "Sketchfab-13.17.0",
    "version": "2.0"
  },
  "bufferViews": [
    {
      "buffer": 0,
      "byteLength": 358008,
      "name": "floatBufferViews",
      "target": 34963
    },
    {
      "buffer": 0,
      "byteLength": 124408,
      "byteOffset": 358008,
      "byteStride": 8,
      "name": "floatBufferViews",
      "target": 34962
    },
    {
      "buffer": 0,
      "byteLength": 373224,
      "byteOffset": 482416,
      "byteStride": 12,
      "name": "floatBufferViews",
      "target": 34962
    },
    {
      "buffer": 0,
      "byteLength": 248816,
      "byteOffset": 855640,
      "byteStride": 16,
      "name": "floatBufferViews",
      "target": 34962
    }
  ],
  "buffers": [
    {
      "byteLength": 1104456,
      "uri": "scene.bin"
    }
  ],
  "images": [
    {
      "uri": "textures/Material.001_baseColor.png"
    },
    {
      "uri": "textures/Material.001_metallicRoughness.png"
    },
    {
      "uri": "textures/Material.001_normal.png"
    },
    {
      "uri": "textures/Material.004_baseColor.png"
    },
    {
      "uri": "textures/Material.004_metallicRoughness.png"
    },
    {
      "uri": "textures/Material.004_normal.png"
    }
  ],
  "materials": [
    {
      "doubleSided": true,
      "name": "Material.001",
      "normalTexture": {
        "index": 2
      },
      "occlusionTexture": {
        "index": 1
      },
      "pbrMetallicRoughness": {
        "baseColorTexture": {
          "index": 0
        },
        "metallicRoughnessTexture": {
          "index": 1
        },
        "roughnessFactor": 0.5
      }
    },
    {
      "doubleSided": true,
      "name": "Material.004",
      "normalTexture": {
        "index": 5
      },
      "occlusionTexture": {
        "index": 4
      },
      "pbrMetallicRoughness": {
        "baseColorTexture": {
          "index": 3
        },
        "metallicRoughnessTexture": {
          "index": 4
        },
        "roughnessFactor": 0.5
      }
    }
  ],
  "meshes": [
    {
      "name": "Object_0",
      "primitives": [
        {
          "attributes": {
            "NORMAL": 1,
            "POSITION": 0,
            "TANGENT": 2,
            "TEXCOORD_0": 3
          },
          "indices": 4,
          "material": 0,
          "mode": 4
        }
      ]
    },
    {
      "name": "Object_1",
      "primitives": [
        {
          "attributes": {
            "NORMAL": 6,
            "POSITION": 5,
            "TANGENT": 7,
            "TEXCOORD_0": 8
          },
          "indices": 9,
          "material": 1,
          "mode": 4
        }
      ]
    }
  ],
  "nodes": [
    {
      "children": [
        1
      ],
      "matrix": [
        1.0,
        0.0,
        0.0,
        0.0,
        0.0,
        2.220446049250313e-16,
        -1.0,
        0.0,
        0.0,
        1.0,
        2.220446049250313e-16,
        0.0,
        0.0,
        0.0,
        0.0,
        1.0
      ],
      "name": "Sketchfab_model"
    },
    {
      "children": [
        2,
        3
      ],
      "name": "grande.obj.cleaner.materialmerger.gles"
    },
    {
      "mesh": 0,
      "name": "Object_2"
    },
    {
      "mesh": 1,
      "name": "Object_3"
    }
  ],
  "samplers": [
    {
      "magFilter": 9729,
      "minFilter": 9987,
      "wrapS": 10497,
      "wrapT": 10497
    }
  ],
  "scene": 0,
  "scenes": [
    {
      "name": "Sketchfab_Scene",
      "nodes": [
        0
      ]
    }
  ],
  "textures": [
    {
      "sampler": 0,
      "source": 0
    },
    {
      "sampler": 0,
      "source": 1
    },
    {
      "sampler": 0,
      "source": 2
    },
    {
      "sampler": 0,
      "source": 3
    },
    {
      "sampler": 0,
      "source": 4
    },
    {
      "sampler": 0,
      "source": 5
    }
  ]
}
