{
  "accessors": [
    {
      "bufferView": 2,
      "componentType": 5126,
      "count": 65532,
      "max": [
        3.366786003112793,
        7.930437088012695,
        2.2259702682495117
      ],
      "min": [
        -3.5262646675109863,
        0.00016880035400390625,
        -2.446613311767578
      ],
      "type": "VEC3"
    },
    {
      "bufferView": 2,
      "byteOffset": 786384,
      "componentType": 5126,
      "count": 65532,
      "max": [
        0.9999538660049438,
        0.9999996423721313,
        0.9999966621398926
      ],
      "min": [
        -0.9999977350234985,
        -1.0,
        -0.9999910593032837
      ],
      "type": "VEC3"
    },
    {
      "bufferView": 3,
      "componentType": 5126,
      "count": 65532,
      "max": [
        0.9999996423721313,
        0.9999976754188538,
        0.999994695186615,
        1.0
      ],
      "min": [
        -0.9999939799308777,
        -0.9999914765357971,
        -0.9999866485595703,
        -1.0
      ],
      "type": "VEC4"
    },
    {
      "bufferView": 1,
      "componentType": 5126,
      "count": 65532,
      "max": [
        0.9210339784622192,
        0.9998400211334229
      ],
      "min": [
        0.0002280000044265762,
        0.014374017715454102
      ],
      "type": "VEC2"
    },
    {
      "bufferView": 1,
      "byteOffset": 524256,
      "componentType": 5126,
      "count": 65532,
      "max": [
        0.9210339784622192,
        0.9998400211334229
      ],
      "min": [
        0.0002280000044265762,
        0.014374017715454102
      ],
      "type": "VEC2"
    },
    {
      "bufferView": 1,
      "byteOffset": 1048512,
      "componentType": 5126,
      "count": 65532,
      "max": [
        0.9210339784622192,
        0.9998400211334229
      ],
      "min": [
        0.0002280000044265762,
        0.014374017715454102
      ],
      "type": "VEC2"
    },
    {
      "bufferView": 1,
      "byteOffset": 1572768,
      "componentType": 5126,
      "count": 65532,
      "max": [
        0.9210339784622192,
        0.9998400211334229
      ],
      "min": [
        0.0002280000044265762,
        0.014374017715454102
      ],
      "type": "VEC2"
    },
    {
      "bufferView": 1,
      "byteOffset": 2097024,
      "componentType": 5126,
      "count": 65532,
      "max": [
        0.9210339784622192,
        0.9998400211334229
      ],
      "min": [
        0.0002280000044265762,
        0.014374017715454102
      ],
      "type": "VEC2"
    },
    {
      "bufferView": 0,
      "componentType": 5125,
      "count": 372294,
      "type": "SCALAR"
    },
    {
      "bufferView": 2,
      "byteOffset": 1572768,
      "componentType": 5126,
      "count": 65532,
      "max": [
        3.5228848457336426,
        7.929888725280762,
        2.1995368003845215
      ],
      "min": [
        -3.4224977493286133,
        0.00016069412231445313,
        -2.0985424518585205
      ],
      "type": "VEC3"
    },
    {
      "bufferView": 2,
      "byteOffset": 2359152,
      "componentType": 5126,
      "count": 65532,
      "max": [
        0.9999954700469971,
        0.9999988079071045,
        0.9999957084655762
      ],
      "min": [
        -0.999990701675415,
        -1.0,
        -0.9999959468841553
      ],
      "type": "VEC3"
    },
    {
      "bufferView": 3,
      "byteOffset": 1048512,
      "componentType": 5126,
      "count": 65532,
      "max": [
        0.9999785423278809,
        0.9999986886978149,
        0.9999948143959045,
        1.0
      ],
      "min": [
        -0.9999831318855286,
        -0.9999356269836426,
        -0.9999977946281433,
        -1.0
      ],
      "type": "VEC4"
    },
    {
      "bufferView": 1,
      "byteOffset": 2621280,
      "componentType": 5126,
      "count": 65532,
      "max": [
        0.9808419942855835,
        0.9997450113296509
      ],
      "min": [
        8.199999865610152e-05,
        0.007749974727630615
      ],
      "type": "VEC2"
    },
    {
      "bufferView": 1,
      "byteOffset": 3145536,
      "componentType": 5126,
      "count": 65532,
      "max": [
        0.9808419942855835,
        0.9997450113296509
      ],
      "min": [
        8.199999865610152e-05,
        0.007749974727630615
      ],
      "type": "VEC2"
    },
    {
      "bufferView": 1,
      "byteOffset": 3669792,
      "componentType": 5126,
      "count": 65532,
      "max": [
        0.9808419942855835,
        0.9997450113296509
      ],
      "min": [
        8.199999865610152e-05,
        0.007749974727630615
      ],
      "type": "VEC2"
    },
    {
      "bufferView": 1,
      "byteOffset": 4194048,
      "componentType": 5126,
      "count": 65532,
      "max": [
        0.9808419942855835,
        0.9997450113296509
      ],
      "min": [
        8.199999865610152e-05,
        0.007749974727630615
      ],
      "type": "VEC2"
    },
    {
      "bufferView": 1,
      "byteOffset": 4718304,
      "componentType": 5126,
      "count": 65532,
      "max": [
        0.9808419942855835,
        0.9997450113296509
      ],
      "min": [
        8.199999865610152e-05,
        0.007749974727630615
      ],
      "type": "VEC2"
    },
    {
      "bufferView": 0,
      "byteOffset": 1489176,
      "componentType": 5125,
      "count": 369234,
      "type": "SCALAR"
    },
    {
      "bufferView": 2,
      "byteOffset": 3145536,
      "componentType": 5126,
      "count": 65532,
      "max": [
        3.674239158630371,
        7.805436134338379,
        2.0597622394561768
      ],
      "min": [
        -3.3622350692749023,
        4.76837158203125e-07,
        -2.0337371826171875
      ],
      "type": "VEC3"
    },
    {
      "bufferView": 2,
      "byteOffset": 3931920,
      "componentType": 5126,
      "count": 65532,
      "max": [
        0.9999985694885254,
        0.9999997615814209,
        0.9999892711639404
      ],
      "min": [
        -0.999997615814209,
        -1.0,
        -0.9999996423721313
      ],
      "type": "VEC3"
    },
    {
      "bufferView": 3,
      "byteOffset": 2097024,
      "componentType": 5126,
      "count": 65532,
      "max": [
        0.9999469518661499,
        0.9999890923500061,
        0.9999955296516418,
        -1.0
      ],
      "min": [
        -0.9999969601631165,
        -0.9999979138374329,
        -0.9999427199363708,
        -1.0
      ],
      "type": "VEC4"
    },
    {
      "bufferView": 1,
      "byteOffset": 5242560,
      "componentType": 5126,
      "count": 65532,
      "max": [
        0.9904109835624695,
        0.9996259808540344
      ],
      "min": [
        0.02573399990797043,
        0.016766011714935303
      ],
      "type": "VEC2"
    },
    {
      "bufferView": 1,
      "byteOffset": 5766816,
      "componentType": 5126,
      "count": 65532,
      "max": [
        0.9904109835624695,
        0.9996259808540344
      ],
      "min": [
        0.02573399990797043,
        0.016766011714935303
      ],
      "type": "VEC2"
    },
    {
      "bufferView": 1,
      "byteOffset": 6291072,
      "componentType": 5126,
      "count": 65532,
      "max": [
        0.9904109835624695,
        0.9996259808540344
      ],
      "min": [
        0.02573399990797043,
        0.016766011714935303
      ],
      "type": "VEC2"
    },
    {
      "bufferView": 1,
      "byteOffset": 6815328,
      "componentType": 5126,
      "count": 65532,
      "max": [
        0.9904109835624695,
        0.9996259808540344
      ],
      "min": [
        0.02573399990797043,
        0.016766011714935303
      ],
      "type": "VEC2"
    },
    {
      "bufferView": 1,
      "byteOffset": 7339584,
      "componentType": 5126,
      "count": 65532,
      "max": [
        0.9904109835624695,
        0.9996259808540344
      ],
      "min": [
        0.02573399990797043,
        0.016766011714935303
      ],
      "type": "VEC2"
    },
    {
      "bufferView": 0,
      "byteOffset": 2966112,
      "componentType": 5125,
      "count": 369366,
      "type": "SCALAR"
    },
    {
      "bufferView": 2,
      "byteOffset": 4718304,
      "componentType": 5126,
      "count": 65532,
      "max": [
        3.533423900604248,
        7.849277496337891,
        1.9419546127319336
      ],
      "min": [
        1.7225126028060913,
        0.00022363662719726563,
        -2.2256710529327393
      ],
      "type": "VEC3"
    },
    {
      "bufferView": 2,
      "byteOffset": 5504688,
      "componentType": 5126,
      "count": 65532,
      "max": [
        0.9999988079071045,
        0.9999978542327881,
        0.9999887943267822
      ],
      "min": [
        -0.9964537024497986,
        -1.0,
        -0.9999969005584717
      ],
      "type": "VEC3"
    },
    {
      "bufferView": 3,
      "byteOffset": 3145536,
      "componentType": 5126,
      "count": 65532,
      "max": [
        0.9999285340309143,
        0.9999967813491821,
        0.9999825358390808,
        -1.0
      ],
      "min": [
        -0.9999862909317017,
        -0.9999915361404419,
        -0.9999997019767761,
        -1.0
      ],
      "type": "VEC4"
    },
    {
      "bufferView": 1,
      "byteOffset": 7863840,
      "componentType": 5126,
      "count": 65532,
      "max": [
        0.987637996673584,
        0.9973959922790527
      ],
      "min": [
        0.013426999561488628,
        0.004805028438568115
      ],
      "type": "VEC2"
    },
    {
      "bufferView": 1,
      "byteOffset": 8388096,
      "componentType": 5126,
      "count": 65532,
      "max": [
        0.987637996673584,
        0.9973959922790527
      ],
      "min": [
        0.013426999561488628,
        0.004805028438568115
      ],
      "type": "VEC2"
    },
    {
      "bufferView": 1,
      "byteOffset": 8912352,
      "componentType": 5126,
      "count": 65532,
      "max": [
        0.987637996673584,
        0.9973959922790527
      ],
      "min": [
        0.013426999561488628,
        0.004805028438568115
      ],
      "type": "VEC2"
    },
    {
      "bufferView": 1,
      "byteOffset": 9436608,
      "componentType": 5126,
      "count": 65532,
      "max": [
        0.987637996673584,
        0.9973959922790527
      ],
      "min": [
        0.013426999561488628,
        0.004805028438568115
      ],
      "type": "VEC2"
    },
    {
      "bufferView": 1,
      "byteOffset": 9960864,
      "componentType": 5126,
      "count": 65532,
      "max": [
        0.987637996673584,
        0.9973959922790527
      ],
      "min": [
        0.013426999561488628,
        0.004805028438568115
      ],
      "type": "VEC2"
    },
    {
      "bufferView": 0,
      "byteOffset": 4443576,
      "componentType": 5125,
      "count": 363420,
      "type": "SCALAR"
    },
    {
      "bufferView": 2,
      "byteOffset": 6291072,
      "componentType": 5126,
      "count": 65534,
      "max": [
        3.402557611465454,
        7.935219764709473,
        2.027390956878662
      ],
      "min": [
        1.6490055322647095,
        0.00018596649169921875,
        -2.186123847961426
      ],
      "type": "VEC3"
    },
    {
      "bufferView": 2,
      "byteOffset": 7077480,
      "componentType": 5126,
      "count": 65534,
      "max": [
        0.9999929666519165,
        0.9999991655349731,
        0.9999973773956299
      ],
      "min": [
        -0.9949297904968262,
        -1.0,
        -0.9999971389770508
      ],
      "type": "VEC3"
    },
    {
      "bufferView": 3,
      "byteOffset": 4194048,
      "componentType": 5126,
      "count": 65534,
      "max": [
        0.9999221563339233,
        0.999998927116394,
        0.9999987483024597,
        1.0
      ],
      "min": [
        -0.9999945759773254,
        -0.9999715089797974,
        -0.9998626112937927,
        -1.0
      ],
      "type": "VEC4"
    },
    {
      "bufferView": 1,
      "byteOffset": 10485120,
      "componentType": 5126,
      "count": 65534,
      "max": [
        0.9975879788398743,
        0.9997159838676453
      ],
      "min": [
        0.0023109999019652605,
        0.007197022438049316
      ],
      "type": "VEC2"
    },
    {
      "bufferView": 1,
      "byteOffset": 11009392,
      "componentType": 5126,
      "count": 65534,
      "max": [
        0.9975879788398743,
        0.9997159838676453
      ],
      "min": [
        0.0023109999019652605,
        0.007197022438049316
      ],
      "type": "VEC2"
    },
    {
      "bufferView": 1,
      "byteOffset": 11533664,
      "componentType": 5126,
      "count": 65534,
      "max": [
        0.9975879788398743,
        0.9997159838676453
      ],
      "min": [
        0.0023109999019652605,
        0.007197022438049316
      ],
      "type": "VEC2"
    },
    {
      "bufferView": 1,
      "byteOffset": 12057936,
      "componentType": 5126,
      "count": 65534,
      "max": [
        0.9975879788398743,
        0.9997159838676453
      ],
      "min": [
        0.0023109999019652605,
        0.007197022438049316
      ],
      "type": "VEC2"
    },
    {
      "bufferView": 1,
      "byteOffset": 12582208,
      "componentType": 5126,
      "count": 65534,
      "max": [
        0.9975879788398743,
        0.9997159838676453
      ],
      "min": [
        0.0023109999019652605,
        0.007197022438049316
      ],
      "type": "VEC2"
    },
    {
      "bufferView": 0,
      "byteOffset": 5897256,
      "componentType": 5125,
      "count": 352650,
      "type": "SCALAR"
    },
    {
      "bufferView": 2,
      "byteOffset": 7863888,
      "componentType": 5126,
      "count": 65532,
      "max": [
        2.7753255367279053,
        7.9994306564331055,
        2.020918607711792
      ],
      "min": [
        0.6764333248138428,
        7.62939453125e-05,
        -2.4334492683410645
      ],
      "type": "VEC3"
    },
    {
      "bufferView": 2,
      "byteOffset": 8650272,
      "componentType": 5126,
      "count": 65532,
      "max": [
        0.9998316168785095,
        0.9999998807907104,
        0.9999884366989136
      ],
      "min": [
        -0.9998463988304138,
        -1.0,
        -0.9999971389770508
      ],
      "type": "VEC3"
    },
    {
      "bufferView": 3,
      "byteOffset": 5242592,
      "componentType": 5126,
      "count": 65532,
      "max": [
        0.9999999403953552,
        0.9999724626541138,
        0.9999857544898987,
        -1.0
      ],
      "min": [
        -0.9999980330467224,
        -0.9999976754188538,
        -0.9999901056289673,
        -1.0
      ],
      "type": "VEC4"
    },
    {
      "bufferView": 1,
      "byteOffset": 13106480,
      "componentType": 5126,
      "count": 65532,
      "max": [
        0.9929490089416504,
        0.9996770024299622
      ],
      "min": [
        0.0006360000115819275,
        0.007197022438049316
      ],
      "type": "VEC2"
    },
    {
      "bufferView": 1,
      "byteOffset": 13630736,
      "componentType": 5126,
      "count": 65532,
      "max": [
        0.9929490089416504,
        0.9996770024299622
      ],
      "min": [
        0.0006360000115819275,
        0.007197022438049316
      ],
      "type": "VEC2"
    },
    {
      "bufferView": 1,
      "byteOffset": 14154992,
      "componentType": 5126,
      "count": 65532,
      "max": [
        0.9929490089416504,
        0.9996770024299622
      ],
      "min": [
        0.0006360000115819275,
        0.007197022438049316
      ],
      "type": "VEC2"
    },
    {
      "bufferView": 1,
      "byteOffset": 14679248,
      "componentType": 5126,
      "count": 65532,
      "max": [
        0.9929490089416504,
        0.9996770024299622
      ],
      "min": [
        0.0006360000115819275,
        0.007197022438049316
      ],
      "type": "VEC2"
    },
    {
      "bufferView": 1,
      "byteOffset": 15203504,
      "componentType": 5126,
      "count": 65532,
      "max": [
        0.9929490089416504,
        0.9996770024299622
      ],
      "min": [
        0.0006360000115819275,
        0.007197022438049316
      ],
      "type": "VEC2"
    },
    {
      "bufferView": 0,
      "byteOffset": 7307856,
      "componentType": 5125,
      "count": 355314,
      "type": "SCALAR"
    },
    {
      "bufferView": 2,
      "byteOffset": 9436656,
      "componentType": 5126,
      "count": 65532,
      "max": [
        2.044524669647217,
        7.998259544372559,
        2.1740005016326904
      ],
      "min": [
        0.20185334980487823,
        0.0001773834228515625,
        -2.5353240966796875
      ],
      "type": "VEC3"
    },
    {
      "bufferView": 2,
      "byteOffset": 10223040,
      "componentType": 5126,
      "count": 65532,
      "max": [
        0.9999346137046814,
        0.9999998807907104,
        0.9999843835830688
      ],
      "min": [
        -0.999996542930603,
        -1.0,
        -0.9999997615814209
      ],
      "type": "VEC3"
    },
    {
      "bufferView": 3,
      "byteOffset": 6291104,
      "componentType": 5126,
      "count": 65532,
      "max": [
        0.9999994039535522,
        0.999950110912323,
        0.9999993443489075,
        1.0
      ],
      "min": [
        -0.9999979734420776,
        -0.9999909996986389,
        -0.9998928904533386,
        -1.0
      ],
      "type": "VEC4"
    },
    {
      "bufferView": 1,
      "byteOffset": 15727760,
      "componentType": 5126,
      "count": 65532,
      "max": [
        0.9975879788398743,
        0.9989969730377197
      ],
      "min": [
        0.00029600001289509237,
        0.0024120211601257324
      ],
      "type": "VEC2"
    },
    {
      "bufferView": 1,
      "byteOffset": 16252016,
      "componentType": 5126,
      "count": 65532,
      "max": [
        0.9975879788398743,
        0.9989969730377197
      ],
      "min": [
        0.00029600001289509237,
        0.0024120211601257324
      ],
      "type": "VEC2"
    },
    {
      "bufferView": 1,
      "byteOffset": 16776272,
      "componentType": 5126,
      "count": 65532,
      "max": [
        0.9975879788398743,
        0.9989969730377197
      ],
      "min": [
        0.00029600001289509237,
        0.0024120211601257324
      ],
      "type": "VEC2"
    },
    {
      "bufferView": 1,
      "byteOffset": 17300528,
      "componentType": 5126,
      "count": 65532,
      "max": [
        0.9975879788398743,
        0.9989969730377197
      ],
      "min": [
        0.00029600001289509237,
        0.0024120211601257324
      ],
      "type": "VEC2"
    },
    {
      "bufferView": 1,
      "byteOffset": 17824784,
      "componentType": 5126,
      "count": 65532,
      "max": [
        0.9975879788398743,
        0.9989969730377197
      ],
      "min": [
        0.00029600001289509237,
        0.0024120211601257324
      ],
      "type": "VEC2"
    },
    {
      "bufferView": 0,
      "byteOffset": 8729112,
      "componentType": 5125,
      "count": 355158,
      "type": "SCALAR"
    },
    {
      "bufferView": 2,
      "byteOffset": 11009424,
      "componentType": 5126,
      "count": 65532,
      "max": [
        1.5713943243026733,
        8.0,
        2.132274627685547
      ],
      "min": [
        -2.7697339057922363,
        0.00019407272338867188,
        -2.497786521911621
      ],
      "type": "VEC3"
    },
    {
      "bufferView": 2,
      "byteOffset": 11795808,
      "componentType": 5126,
      "count": 65532,
      "max": [
        0.9999819993972778,
        0.9999997615814209,
        0.9999984502792358
      ],
      "min": [
        -0.9999221563339233,
        -1.0,
        -0.9999996423721313
      ],
      "type": "VEC3"
    },
    {
      "bufferView": 3,
      "byteOffset": 7339616,
      "componentType": 5126,
      "count": 65532,
      "max": [
        1.0,
        0.9999632239341736,
        0.9999862313270569,
        1.0
      ],
      "min": [
        -0.9999976754188538,
        -0.9999907612800598,
        -0.9994814991950989,
        -1.0
      ],
      "type": "VEC4"
    },
    {
      "bufferView": 1,
      "byteOffset": 18349040,
      "componentType": 5126,
      "count": 65532,
      "max": [
        0.9971629977226257,
        0.9987360239028931
      ],
      "min": [
        0.00031999999191612005,
        0.007569015026092529
      ],
      "type": "VEC2"
    },
    {
      "bufferView": 1,
      "byteOffset": 18873296,
      "componentType": 5126,
      "count": 65532,
      "max": [
        0.9971629977226257,
        0.9987360239028931
      ],
      "min": [
        0.00031999999191612005,
        0.007569015026092529
      ],
      "type": "VEC2"
    },
    {
      "bufferView": 1,
      "byteOffset": 19397552,
      "componentType": 5126,
      "count": 65532,
      "max": [
        0.9971629977226257,
        0.9987360239028931
      ],
      "min": [
        0.00031999999191612005,
        0.007569015026092529
      ],
      "type": "VEC2"
    },
    {
      "bufferView": 1,
      "byteOffset": 19921808,
      "componentType": 5126,
      "count": 65532,
      "max": [
        0.9971629977226257,
        0.9987360239028931
      ],
      "min": [
        0.00031999999191612005,
        0.007569015026092529
      ],
      "type": "VEC2"
    },
    {
      "bufferView": 1,
      "byteOffset": 20446064,
      "componentType": 5126,
      "count": 65532,
      "max": [
        0.9971629977226257,
        0.9987360239028931
      ],
      "min": [
        0.00031999999191612005,
        0.007569015026092529
      ],
      "type": "VEC2"
    },
    {
      "bufferView": 0,
      "byteOffset": 10149744,
      "componentType": 5125,
      "count": 358869,
      "type": "SCALAR"
    },
    {
      "bufferView": 2,
      "byteOffset": 12582192,
      "componentType": 5126,
      "count": 65532,
      "max": [
        -0.4827127456665039,
        7.966086387634277,
        2.2677254676818848
      ],
      "min": [
        -3.1944468021392822,
        0.00017309188842773438,
        -2.4732701778411865
      ],
      "type": "VEC3"
    },
    {
      "bufferView": 2,
      "byteOffset": 13368576,
      "componentType": 5126,
      "count": 65532,
      "max": [
        0.9999675750732422,
        1.0,
        0.999997615814209
      ],
      "min": [
        -0.9999964237213135,
        -1.0,
        -0.9999966621398926
      ],
      "type": "VEC3"
    },
    {
      "bufferView": 3,
      "byteOffset": 8388128,
      "componentType": 5126,
      "count": 65532,
      "max": [
        0.9999997019767761,
        0.9999786615371704,
        0.9999946355819702,
        1.0
      ],
      "min": [
        -0.9999978542327881,
        -0.9999966025352478,
        -0.999997079372406,
        -1.0
      ],
      "type": "VEC4"
    },
    {
      "bufferView": 1,
      "byteOffset": 20970320,
      "componentType": 5126,
      "count": 65532,
      "max": [
        0.9800670146942139,
        0.9963549971580505
      ],
      "min": [
        0.00029600001289509237,
        0.019158005714416504
      ],
      "type": "VEC2"
    },
    {
      "bufferView": 1,
      "byteOffset": 21494576,
      "componentType": 5126,
      "count": 65532,
      "max": [
        0.9800670146942139,
        0.9963549971580505
      ],
      "min": [
        0.00029600001289509237,
        0.019158005714416504
      ],
      "type": "VEC2"
    },
    {
      "bufferView": 1,
      "byteOffset": 22018832,
      "componentType": 5126,
      "count": 65532,
      "max": [
        0.9800670146942139,
        0.9963549971580505
      ],
      "min": [
        0.00029600001289509237,
        0.019158005714416504
      ],
      "type": "VEC2"
    },
    {
      "bufferView": 1,
      "byteOffset": 22543088,
      "componentType": 5126,
      "count": 65532,
      "max": [
        0.9800670146942139,
        0.9963549971580505
      ],
      "min": [
        0.00029600001289509237,
        0.019158005714416504
      ],
      "type": "VEC2"
    },
    {
      "bufferView": 1,
      "byteOffset": 23067344,
      "componentType": 5126,
      "count": 65532,
      "max": [
        0.9800670146942139,
        0.9963549971580505
      ],
      "min": [
        0.00029600001289509237,
        0.019158005714416504
      ],
      "type": "VEC2"
    },
    {
      "bufferView": 0,
      "byteOffset": 11585220,
      "componentType": 5125,
      "count": 361146,
      "type": "SCALAR"
    },
    {
      "bufferView": 2,
      "byteOffset": 14154960,
      "componentType": 5126,
      "count": 65532,
      "max": [
        -1.8549295663833618,
        7.961219310760498,
        2.5334150791168213
      ],
      "min": [
        -3.5359859466552734,
        0.00016498565673828125,
        -2.527970790863037
      ],
      "type": "VEC3"
    },
    {
      "bufferView": 2,
      "byteOffset": 14941344,
      "componentType": 5126,
      "count": 65532,
      "max": [
        0.9999675750732422,
        1.0,
        0.9999998807907104
      ],
      "min": [
        -0.9999963045120239,
        -1.0,
        -0.9999936819076538
      ],
      "type": "VEC3"
    },
    {
      "bufferView": 3,
      "byteOffset": 9436640,
      "componentType": 5126,
      "count": 65532,
      "max": [
        0.9999949336051941,
        0.9999961853027344,
        0.9999524354934692,
        1.0
      ],
      "min": [
        -0.9999964833259583,
        -0.9999966025352478,
        -0.9999881386756897,
        -1.0
      ],
      "type": "VEC4"
    },
    {
      "bufferView": 1,
      "byteOffset": 23591600,
      "componentType": 5126,
      "count": 65532,
      "max": [
        0.9521340131759644,
        0.9906430244445801
      ],
      "min": [
        4.999999873689376e-05,
        0.0119820237159729
      ],
      "type": "VEC2"
    },
    {
      "bufferView": 1,
      "byteOffset": 24115856,
      "componentType": 5126,
      "count": 65532,
      "max": [
        0.9521340131759644,
        0.9906430244445801
      ],
      "min": [
        4.999999873689376e-05,
        0.0119820237159729
      ],
      "type": "VEC2"
    },
    {
      "bufferView": 1,
      "byteOffset": 24640112,
      "componentType": 5126,
      "count": 65532,
      "max": [
        0.9521340131759644,
        0.9906430244445801
      ],
      "min": [
        4.999999873689376e-05,
        0.0119820237159729
      ],
      "type": "VEC2"
    },
    {
      "bufferView": 1,
      "byteOffset": 25164368,
      "componentType": 5126,
      "count": 65532,
      "max": [
        0.9521340131759644,
        0.9906430244445801
      ],
      "min": [
        4.999999873689376e-05,
        0.0119820237159729
      ],
      "type": "VEC2"
    },
    {
      "bufferView": 1,
      "byteOffset": 25688624,
      "componentType": 5126,
      "count": 65532,
      "max": [
        0.9521340131759644,
        0.9906430244445801
      ],
      "min": [
        4.999999873689376e-05,
        0.0119820237159729
      ],
      "type": "VEC2"
    },
    {
      "bufferView": 0,
      "byteOffset": 13029804,
      "componentType": 5125,
      "count": 356880,
      "type": "SCALAR"
    },
    {
      "bufferView": 2,
      "byteOffset": 15727728,
      "componentType": 5126,
      "count": 65532,
      "max": [
        -2.4088568687438965,
        7.957578659057617,
        2.197421073913574
      ],
      "min": [
        -3.679582357406616,
        0.00015211105346679688,
        -2.4969396591186523
      ],
      "type": "VEC3"
    },
    {
      "bufferView": 2,
      "byteOffset": 16514112,
      "componentType": 5126,
      "count": 65532,
      "max": [
        0.9968894720077515,
        0.9999994039535522,
        0.9999620914459229
      ],
      "min": [
        -0.9999997615814209,
        -1.0,
        -0.9999934434890747
      ],
      "type": "VEC3"
    },
    {
      "bufferView": 3,
      "byteOffset": 10485152,
      "componentType": 5126,
      "count": 65532,
      "max": [
        0.9996364712715149,
        0.9999992847442627,
        0.9999967217445374,
        -1.0
      ],
      "min": [
        -1.0,
        -0.9999997019767761,
        -0.9999982118606567,
        -1.0
      ],
      "type": "VEC4"
    },
    {
      "bufferView": 1,
      "byteOffset": 26212880,
      "componentType": 5126,
      "count": 65532,
      "max": [
        0.9880179762840271,
        0.9995660185813904
      ],
      "min": [
        8.199999865610152e-05,
        2.002716064453125e-05
      ],
      "type": "VEC2"
    },
    {
      "bufferView": 1,
      "byteOffset": 26737136,
      "componentType": 5126,
      "count": 65532,
      "max": [
        0.9880179762840271,
        0.9995660185813904
      ],
      "min": [
        8.199999865610152e-05,
        2.002716064453125e-05
      ],
      "type": "VEC2"
    },
    {
      "bufferView": 1,
      "byteOffset": 27261392,
      "componentType": 5126,
      "count": 65532,
      "max": [
        0.9880179762840271,
        0.9995660185813904
      ],
      "min": [
        8.199999865610152e-05,
        2.002716064453125e-05
      ],
      "type": "VEC2"
    },
    {
      "bufferView": 1,
      "byteOffset": 27785648,
      "componentType": 5126,
      "count": 65532,
      "max": [
        0.9880179762840271,
        0.9995660185813904
      ],
      "min": [
        8.199999865610152e-05,
        2.002716064453125e-05
      ],
      "type": "VEC2"
    },
    {
      "bufferView": 1,
      "byteOffset": 28309904,
      "componentType": 5126,
      "count": 65532,
      "max": [
        0.9880179762840271,
        0.9995660185813904
      ],
      "min": [
        8.199999865610152e-05,
        2.002716064453125e-05
      ],
      "type": "VEC2"
    },
    {
      "bufferView": 0,
      "byteOffset": 14457324,
      "componentType": 5125,
      "count": 351435,
      "type": "SCALAR"
    },
    {
      "bufferView": 2,
      "byteOffset": 17300496,
      "componentType": 5126,
      "count": 65532,
      "max": [
        0.0764482393860817,
        7.952218532562256,
        2.3101887702941895
      ],
      "min": [
        -3.649773359298706,
        0.000156402587890625,
        -2.50852370262146
      ],
      "type": "VEC3"
    },
    {
      "bufferView": 2,
      "byteOffset": 18086880,
      "componentType": 5126,
      "count": 65532,
      "max": [
        0.9999730587005615,
        1.0,
        0.9999521970748901
      ],
      "min": [
        -0.9999991655349731,
        -1.0,
        -0.9999922513961792
      ],
      "type": "VEC3"
    },
    {
      "bufferView": 3,
      "byteOffset": 11533664,
      "componentType": 5126,
      "count": 65532,
      "max": [
        0.9999960660934448,
        0.9999815225601196,
        0.9999967217445374,
        1.0
      ],
      "min": [
        -0.9999998211860657,
        -0.9999969005584717,
        -0.9999997615814209,
        -1.0
      ],
      "type": "VEC4"
    },
    {
      "bufferView": 1,
      "byteOffset": 28834160,
      "componentType": 5126,
      "count": 65532,
      "max": [
        0.9821779727935791,
        0.9999669790267944
      ],
      "min": [
        2.9000000722589903e-05,
        0.00723499059677124
      ],
      "type": "VEC2"
    },
    {
      "bufferView": 1,
      "byteOffset": 29358416,
      "componentType": 5126,
      "count": 65532,
      "max": [
        0.9821779727935791,
        0.9999669790267944
      ],
      "min": [
        2.9000000722589903e-05,
        0.00723499059677124
      ],
      "type": "VEC2"
    },
    {
      "bufferView": 1,
      "byteOffset": 29882672,
      "componentType": 5126,
      "count": 65532,
      "max": [
        0.9821779727935791,
        0.9999669790267944
      ],
      "min": [
        2.9000000722589903e-05,
        0.00723499059677124
      ],
      "type": "VEC2"
    },
    {
      "bufferView": 1,
      "byteOffset": 30406928,
      "componentType": 5126,
      "count": 65532,
      "max": [
        0.9821779727935791,
        0.9999669790267944
      ],
      "min": [
        2.9000000722589903e-05,
        0.00723499059677124
      ],
      "type": "VEC2"
    },
    {
      "bufferView": 1,
      "byteOffset": 30931184,
      "componentType": 5126,
      "count": 65532,
      "max": [
        0.9821779727935791,
        0.9999669790267944
      ],
      "min": [
        2.9000000722589903e-05,
        0.00723499059677124
      ],
      "type": "VEC2"
    },
    {
      "bufferView": 0,
      "byteOffset": 15863064,
      "componentType": 5125,
      "count": 328665,
      "type": "SCALAR"
    },
    {
      "bufferView": 2,
      "byteOffset": 18873264,
      "componentType": 5126,
      "count": 65532,
      "max": [
        0.34869447350502014,
        7.925510883331299,
        2.2860054969787598
      ],
      "min": [
        -1.2704432010650635,
        0.00020265579223632813,
        -2.420891761779785
      ],
      "type": "VEC3"
    },
    {
      "bufferView": 2,
      "byteOffset": 19659648,
      "componentType": 5126,
      "count": 65532,
      "max": [
        0.9999535083770752,
        0.9999992847442627,
        0.9999938011169434
      ],
      "min": [
        -0.9999992847442627,
        -1.0,
        -0.9999921321868896
      ],
      "type": "VEC3"
    },
    {
      "bufferView": 3,
      "byteOffset": 12582176,
      "componentType": 5126,
      "count": 65532,
      "max": [
        0.9999975562095642,
        0.9999993443489075,
        0.9999918937683105,
        -1.0
      ],
      "min": [
        -0.9999521970748901,
        -0.9999893307685852,
        -1.0,
        -1.0
      ],
      "type": "VEC4"
    },
    {
      "bufferView": 1,
      "byteOffset": 31455440,
      "componentType": 5126,
      "count": 65532,
      "max": [
        0.9928029775619507,
        0.9993299841880798
      ],
      "min": [
        0.00030399998649954796,
        0.0024120211601257324
      ],
      "type": "VEC2"
    },
    {
      "bufferView": 1,
      "byteOffset": 31979696,
      "componentType": 5126,
      "count": 65532,
      "max": [
        0.9928029775619507,
        0.9993299841880798
      ],
      "min": [
        0.00030399998649954796,
        0.0024120211601257324
      ],
      "type": "VEC2"
    },
    {
      "bufferView": 1,
      "byteOffset": 32503952,
      "componentType": 5126,
      "count": 65532,
      "max": [
        0.9928029775619507,
        0.9993299841880798
      ],
      "min": [
        0.00030399998649954796,
        0.0024120211601257324
      ],
      "type": "VEC2"
    },
    {
      "bufferView": 1,
      "byteOffset": 33028208,
      "componentType": 5126,
      "count": 65532,
      "max": [
        0.9928029775619507,
        0.9993299841880798
      ],
      "min": [
        0.00030399998649954796,
        0.0024120211601257324
      ],
      "type": "VEC2"
    },
    {
      "bufferView": 1,
      "byteOffset": 33552464,
      "componentType": 5126,
      "count": 65532,
      "max": [
        0.9928029775619507,
        0.9993299841880798
      ],
      "min": [
        0.00030399998649954796,
        0.0024120211601257324
      ],
      "type": "VEC2"
    },
    {
      "bufferView": 0,
      "byteOffset": 17177724,
      "componentType": 5125,
      "count": 350595,
      "type": "SCALAR"
    },
    {
      "bufferView": 2,
      "byteOffset": 20446032,
      "componentType": 5126,
      "count": 65532,
      "max": [
        1.1521763801574707,
        7.9986467361450195,
        2.2354092597961426
      ],
      "min": [
        -0.2675646245479584,
        0.0001983642578125,
        -2.535083532333374
      ],
      "type": "VEC3"
    },
    {
      "bufferView": 2,
      "byteOffset": 21232416,
      "componentType": 5126,
      "count": 65532,
      "max": [
        0.9999538660049438,
        1.0,
        0.9999924898147583
      ],
      "min": [
        -0.9999992847442627,
        -1.0,
        -0.9999934434890747
      ],
      "type": "VEC3"
    },
    {
      "bufferView": 3,
      "byteOffset": 13630688,
      "componentType": 5126,
      "count": 65532,
      "max": [
        1.0,
        0.9999976754188538,
        0.999998152256012,
        1.0
      ],
      "min": [
        -0.9999946355819702,
        -0.9999990463256836,
        -1.0,
        -1.0
      ],
      "type": "VEC4"
    },
    {
      "bufferView": 1,
      "byteOffset": 34076720,
      "componentType": 5126,
      "count": 65532,
      "max": [
        0.9928029775619507,
        0.99959397315979
      ],
      "min": [
        0.00044800000614486635,
        0.004328012466430664
      ],
      "type": "VEC2"
    },
    {
      "bufferView": 1,
      "byteOffset": 34600976,
      "componentType": 5126,
      "count": 65532,
      "max": [
        0.9928029775619507,
        0.99959397315979
      ],
      "min": [
        0.00044800000614486635,
        0.004328012466430664
      ],
      "type": "VEC2"
    },
    {
      "bufferView": 1,
      "byteOffset": 35125232,
      "componentType": 5126,
      "count": 65532,
      "max": [
        0.9928029775619507,
        0.99959397315979
      ],
      "min": [
        0.00044800000614486635,
        0.004328012466430664
      ],
      "type": "VEC2"
    },
    {
      "bufferView": 1,
      "byteOffset": 35649488,
      "componentType": 5126,
      "count": 65532,
      "max": [
        0.9928029775619507,
        0.99959397315979
      ],
      "min": [
        0.00044800000614486635,
        0.004328012466430664
      ],
      "type": "VEC2"
    },
    {
      "bufferView": 1,
      "byteOffset": 36173744,
      "componentType": 5126,
      "count": 65532,
      "max": [
        0.9928029775619507,
        0.99959397315979
      ],
      "min": [
        0.00044800000614486635,
        0.004328012466430664
      ],
      "type": "VEC2"
    },
    {
      "bufferView": 0,
      "byteOffset": 18580104,
      "componentType": 5125,
      "count": 345249,
      "type": "SCALAR"
    },
    {
      "bufferView": 2,
      "byteOffset": 22018800,
      "componentType": 5126,
      "count": 1747,
      "max": [
        1.2236396074295044,
        7.997884750366211,
        2.007568836212158
      ],
      "min": [
        0.8652320504188538,
        0.00019407272338867188,
        -2.521190643310547
      ],
      "type": "VEC3"
    },
    {
      "bufferView": 2,
      "byteOffset": 22039764,
      "componentType": 5126,
      "count": 1747,
      "max": [
        0.9999908208847046,
        0.9999790191650391,
        0.9994674324989319
      ],
      "min": [
        -0.998714804649353,
        -1.0,
        -0.9979859590530396
      ],
      "type": "VEC3"
    },
    {
      "bufferView": 3,
      "byteOffset": 14679200,
      "componentType": 5126,
      "count": 1747,
      "max": [
        0.9998199343681335,
        0.9998124241828918,
        0.9992233514785767,
        -1.0
      ],
      "min": [
        -0.9999365210533142,
        -0.998895525932312,
        -0.9980958104133606,
        -1.0
      ],
      "type": "VEC4"
    },
    {
      "bufferView": 1,
      "byteOffset": 36698000,
      "componentType": 5126,
      "count": 1747,
      "max": [
        0.992251992225647,
        0.9998890161514282
      ],
      "min": [
        0.006122000049799681,
        0.016883015632629395
      ],
      "type": "VEC2"
    },
    {
      "bufferView": 1,
      "byteOffset": 36711976,
      "componentType": 5126,
      "count": 1747,
      "max": [
        0.992251992225647,
        0.9998890161514282
      ],
      "min": [
        0.006122000049799681,
        0.016883015632629395
      ],
      "type": "VEC2"
    },
    {
      "bufferView": 1,
      "byteOffset": 36725952,
      "componentType": 5126,
      "count": 1747,
      "max": [
        0.992251992225647,
        0.9998890161514282
      ],
      "min": [
        0.006122000049799681,
        0.016883015632629395
      ],
      "type": "VEC2"
    },
    {
      "bufferView": 1,
      "byteOffset": 36739928,
      "componentType": 5126,
      "count": 1747,
      "max": [
        0.992251992225647,
        0.9998890161514282
      ],
      "min": [
        0.006122000049799681,
        0.016883015632629395
      ],
      "type": "VEC2"
    },
    {
      "bufferView": 1,
      "byteOffset": 36753904,
      "componentType": 5126,
      "count": 1747,
      "max": [
        0.992251992225647,
        0.9998890161514282
      ],
      "min": [
        0.006122000049799681,
        0.016883015632629395
      ],
      "type": "VEC2"
    },
    {
      "bufferView": 0,
      "byteOffset": 19961100,
      "componentType": 5125,
      "count": 3579,
      "type": "SCALAR"
    }
  ],
  "asset": {
    "extras": {
      "author": "Galaxy Abundant (https://sketchfab.com/galaxyabundant)",
      "license": "CC-BY-4.0 (http://creativecommons.org/licenses/by/4.0/)",
      "source": "https://sketchfab.com/3d-models/modular-coastal-cliff-wall-segment-2692c35f76a14832993c88fa2273c153",
      "title": "Modular Coastal Cliff Wall Segment"
    },
    "generator": "Sketchfab-0.9.0",
    "version": "2.0"
  },
  "bufferViews": [
    {
      "buffer": 0,
      "byteLength": 19975416,
      "name": "floatBufferViews",
      "target": 34963
    },
    {
      "buffer": 0,
      "byteLength": 36767880,
      "byteOffset": 19975416,
      "byteStride": 8,
      "name": "floatBufferViews",
      "target": 34962
    },
    {
      "buffer": 0,
      "byteLength": 22060728,
      "byteOffset": 56743296,
      "byteStride": 12,
      "name": "floatBufferViews",
      "target": 34962
    },
    {
      "buffer": 0,
      "byteLength": 14707152,
      "byteOffset": 78804024,
      "byteStride": 16,
      "name": "floatBufferViews",
      "target": 34962
    }
  ],
  "buffers": [
    {
      "byteLength": 93511176,
      "uri": "scene.bin"
    }
  ],
  "extensionsRequired": [
    "KHR_materials_pbrSpecularGlossiness"
  ],
  "extensionsUsed": [
    "KHR_materials_pbrSpecularGlossiness"
  ],
  "images": [
    {
      "uri": "textures/Material_0.016_diffuse.jpeg"
    },
    {
      "uri": "textures/Material_0.016_specularGlossiness.png"
    },
    {
      "uri": "textures/Material_0.016_emissive.jpeg"
    },
    {
      "uri": "textures/Material_0.016_normal.jpeg"
    }
  ],
  "materials": [
    {
      "doubleSided": true,
      "emissiveFactor": [
        1.0,
        1.0,
        1.0
      ],
      "emissiveTexture": {
        "index": 2,
        "texCoord": 2
      },
      "extensions": {
        "KHR_materials_pbrSpecularGlossiness": {
          "diffuseFactor": [
            1.0,
            1.0,
            1.0,
            1.0
          ],
          "diffuseTexture": {
            "index": 0
          },
          "glossinessFactor": 1.0,
          "specularFactor": [
            1.0,
            1.0,
            1.0
          ],
          "specularGlossinessTexture": {
            "index": 1,
            "texCoord": 1
          }
        }
      },
      "name": "Material_0.016",
      "normalTexture": {
        "index": 3,
        "texCoord": 3
      }
    }
  ],
  "meshes": [
    {
      "name": "Object_0",
      "primitives": [
        {
          "attributes": {
            "NORMAL": 1,
            "POSITION": 0,
            "TANGENT": 2,
            "TEXCOORD_0": 3,
            "TEXCOORD_1": 4,
            "TEXCOORD_2": 5,
            "TEXCOORD_3": 6,
            "TEXCOORD_4": 7
          },
          "indices": 8,
          "material": 0,
          "mode": 4
        }
      ]
    },
    {
      "name": "Object_1",
      "primitives": [
        {
          "attributes": {
            "NORMAL": 10,
            "POSITION": 9,
            "TANGENT": 11,
            "TEXCOORD_0": 12,
            "TEXCOORD_1": 13,
            "TEXCOORD_2": 14,
            "TEXCOORD_3": 15,
            "TEXCOORD_4": 16
          },
          "indices": 17,
          "material": 0,
          "mode": 4
        }
      ]
    },
    {
      "name": "Object_2",
      "primitives": [
        {
          "attributes": {
            "NORMAL": 19,
            "POSITION": 18,
            "TANGENT": 20,
            "TEXCOORD_0": 21,
            "TEXCOORD_1": 22,
            "TEXCOORD_2": 23,
            "TEXCOORD_3": 24,
            "TEXCOORD_4": 25
          },
          "indices": 26,
          "material": 0,
          "mode": 4
        }
      ]
    },
    {
      "name": "Object_3",
      "primitives": [
        {
          "attributes": {
            "NORMAL": 28,
            "POSITION": 27,
            "TANGENT": 29,
            "TEXCOORD_0": 30,
            "TEXCOORD_1": 31,
            "TEXCOORD_2": 32,
            "TEXCOORD_3": 33,
            "TEXCOORD_4": 34
          },
          "indices": 35,
          "material": 0,
          "mode": 4
        }
      ]
    },
    {
      "name": "Object_4",
      "primitives": [
        {
          "attributes": {
            "NORMAL": 37,
            "POSITION": 36,
            "TANGENT": 38,
            "TEXCOORD_0": 39,
            "TEXCOORD_1": 40,
            "TEXCOORD_2": 41,
            "TEXCOORD_3": 42,
            "TEXCOORD_4": 43
          },
          "indices": 44,
          "material": 0,
          "mode": 4
        }
      ]
    },
    {
      "name": "Object_5",
      "primitives": [
        {
          "attributes": {
            "NORMAL": 46,
            "POSITION": 45,
            "TANGENT": 47,
            "TEXCOORD_0": 48,
            "TEXCOORD_1": 49,
            "TEXCOORD_2": 50,
            "TEXCOORD_3": 51,
            "TEXCOORD_4": 52
          },
          "indices": 53,
          "material": 0,
          "mode": 4
        }
      ]
    },
    {
      "name": "Object_6",
      "primitives": [
        {
          "attributes": {
            "NORMAL": 55,
            "POSITION": 54,
            "TANGENT": 56,
            "TEXCOORD_0": 57,
            "TEXCOORD_1": 58,
            "TEXCOORD_2": 59,
            "TEXCOORD_3": 60,
            "TEXCOORD_4": 61
          },
          "indices": 62,
          "material": 0,
          "mode": 4
        }
      ]
    },
    {
      "name": "Object_7",
      "primitives": [
        {
          "attributes": {
            "NORMAL": 64,
            "POSITION": 63,
            "TANGENT": 65,
            "TEXCOORD_0": 66,
            "TEXCOORD_1": 67,
            "TEXCOORD_2": 68,
            "TEXCOORD_3": 69,
            "TEXCOORD_4": 70
          },
          "indices": 71,
          "material": 0,
          "mode": 4
        }
      ]
    },
    {
      "name": "Object_8",
      "primitives": [
        {
          "attributes": {
            "NORMAL": 73,
            "POSITION": 72,
            "TANGENT": 74,
            "TEXCOORD_0": 75,
            "TEXCOORD_1": 76,
            "TEXCOORD_2": 77,
            "TEXCOORD_3": 78,
            "TEXCOORD_4": 79
          },
          "indices": 80,
          "material": 0,
          "mode": 4
        }
      ]
    },
    {
      "name": "Object_9",
      "primitives": [
        {
          "attributes": {
            "NORMAL": 82,
            "POSITION": 81,
            "TANGENT": 83,
            "TEXCOORD_0": 84,
            "TEXCOORD_1": 85,
            "TEXCOORD_2": 86,
            "TEXCOORD_3": 87,
            "TEXCOORD_4": 88
          },
          "indices": 89,
          "material": 0,
          "mode": 4
        }
      ]
    },
    {
      "name": "Object_10",
      "primitives": [
        {
          "attributes": {
            "NORMAL": 91,
            "POSITION": 90,
            "TANGENT": 92,
            "TEXCOORD_0": 93,
            "TEXCOORD_1": 94,
            "TEXCOORD_2": 95,
            "TEXCOORD_3": 96,
            "TEXCOORD_4": 97
          },
          "indices": 98,
          "material": 0,
          "mode": 4
        }
      ]
    },
    {
      "name": "Object_11",
      "primitives": [
        {
          "attributes": {
            "NORMAL": 100,
            "POSITION": 99,
            "TANGENT": 101,
            "TEXCOORD_0": 102,
            "TEXCOORD_1": 103,
            "TEXCOORD_2": 104,
            "TEXCOORD_3": 105,
            "TEXCOORD_4": 106
          },
          "indices": 107,
          "material": 0,
          "mode": 4
        }
      ]
    },
    {
      "name": "Object_12",
      "primitives": [
        {
          "attributes": {
            "NORMAL": 109,
            "POSITION": 108,
            "TANGENT": 110,
            "TEXCOORD_0": 111,
            "TEXCOORD_1": 112,
            "TEXCOORD_2": 113,
            "TEXCOORD_3": 114,
            "TEXCOORD_4": 115
          },
          "indices": 116,
          "material": 0,
          "mode": 4
        }
      ]
    },
    {
      "name": "Object_13",
      "primitives": [
        {
          "attributes": {
            "NORMAL": 118,
            "POSITION": 117,
            "TANGENT": 119,
            "TEXCOORD_0": 120,
            "TEXCOORD_1": 121,
            "TEXCOORD_2": 122,
            "TEXCOORD_3": 123,
            "TEXCOORD_4": 124
          },
          "indices": 125,
          "material": 0,
          "mode": 4
        }
      ]
    },
    {
      "name": "Object_14",
      "primitives": [
        {
          "attributes": {
            "NORMAL": 127,
            "POSITION": 126,
            "TANGENT": 128,
            "TEXCOORD_0": 129,
            "TEXCOORD_1": 130,
            "TEXCOORD_2": 131,
            "TEXCOORD_3": 132,
            "TEXCOORD_4": 133
          },
          "indices": 134,
          "material": 0,
          "mode": 4
        }
      ]
    }
  ],
  "nodes": [
    {
      "children": [
        1
      ],
      "matrix": [
        1.0,
        0.0,
        0.0,
        0.0,
        0.0,
        2.220446049250313e-16,
        -1.0,
        0.0,
        0.0,
        1.0,
        2.220446049250313e-16,
        0.0,
        0.0,
        0.0,
        0.0,
        1.0
      ],
      "name": "Sketchfab_model"
    },
    {
      "children": [
        2
      ],
      "name": "root"
    },
    {
      "children": [
        3
      ],
      "matrix": [
        1.0,
        0.0,
        0.0,
        0.0,
        0.0,
        2.220446049250313e-16,
        1.0,
        0.0,
        0.0,
        -1.0,
        2.220446049250313e-16,
        0.0,
        0.0,
        0.0,
        0.0,
        1.0
      ],
      "name": "GLTF_SceneRootNode"
    },
    {
      "children": [
        4,
        5,
        6,
        7,
        8,
        9,
        10,
        11,
        12,
        13,
        14,
        15,
        16,
        17,
        18
      ],
      "name": "Mesh_0.005_0"
    },
    {
      "mesh": 0,
      "name": "Object_4"
    },
    {
      "mesh": 1,
      "name": "Object_5"
    },
    {
      "mesh": 2,
      "name": "Object_6"
    },
    {
      "mesh": 3,
      "name": "Object_7"
    },
    {
      "mesh": 4,
      "name": "Object_8"
    },
    {
      "mesh": 5,
      "name": "Object_9"
    },
    {
      "mesh": 6,
      "name": "Object_10"
    },
    {
      "mesh": 7,
      "name": "Object_11"
    },
    {
      "mesh": 8,
      "name": "Object_12"
    },
    {
      "mesh": 9,
      "name": "Object_13"
    },
    {
      "mesh": 10,
      "name": "Object_14"
    },
    {
      "mesh": 11,
      "name": "Object_15"
    },
    {
      "mesh": 12,
      "name": "Object_16"
    },
    {
      "mesh": 13,
      "name": "Object_17"
    },
    {
      "mesh": 14,
      "name": "Object_18"
    }
  ],
  "samplers": [
    {
      "magFilter": 9729,
      "minFilter": 9987,
      "wrapS": 10497,
      "wrapT": 10497
    }
  ],
  "scene": 0,
  "scenes": [
    {
      "name": "Sketchfab_Scene",
      "nodes": [
        0
      ]
    }
  ],
  "textures": [
    {
      "sampler": 0,
      "source": 0
    },
    {
      "sampler": 0,
      "source": 1
    },
    {
      "sampler": 0,
      "source": 2
    },
    {
      "sampler": 0,
      "source": 3
    }
  ]
}
